<?xml version="1.0" encoding="UTF-8" standalone="no"?>
<!-- Created with Inkscape (http://www.inkscape.org/) -->

<svg
   xmlns:dc="http://purl.org/dc/elements/1.1/"
   xmlns:cc="http://creativecommons.org/ns#"
   xmlns:rdf="http://www.w3.org/1999/02/22-rdf-syntax-ns#"
   xmlns:svg="http://www.w3.org/2000/svg"
   xmlns="http://www.w3.org/2000/svg"
   xmlns:sodipodi="http://sodipodi.sourceforge.net/DTD/sodipodi-0.dtd"
   xmlns:inkscape="http://www.inkscape.org/namespaces/inkscape"
   width="210mm"
   height="297mm"
   viewBox="0 0 744.09448819 1052.3622047"
   id="svg2"
   version="1.1"
   inkscape:version="0.91 r"
   sodipodi:docname="v2.svg">
  <defs
     id="defs4" />
  <sodipodi:namedview
     id="base"
     pagecolor="#ffffff"
     bordercolor="#666666"
     borderopacity="1.0"
     inkscape:pageopacity="0.0"
     inkscape:pageshadow="2"
     inkscape:zoom="0.175"
     inkscape:cx="1212.3871"
     inkscape:cy="-624.03021"
     inkscape:document-units="cm"
     inkscape:current-layer="layer1"
     showgrid="false"
     inkscape:window-width="1920"
     inkscape:window-height="1031"
     inkscape:window-x="0"
     inkscape:window-y="0"
     inkscape:window-maximized="1"
     showguides="true"
     inkscape:guide-bbox="true">
    <sodipodi:guide
       position="527.80471,87.378197"
       orientation="1,0"
       id="guide4680" />
    <sodipodi:guide
       position="23.991123,26.516505"
       orientation="0,1"
       id="guide4700" />
    <sodipodi:guide
       position="23.392857,53.392858"
       orientation="0,1"
       id="guide4702" />
    <sodipodi:guide
       position="17.678572,76.07143"
       orientation="1,0"
       id="guide4850" />
    <sodipodi:guide
       position="35.357143,53.392858"
       orientation="1,0"
       id="guide4852" />
  </sodipodi:namedview>
  <metadata
     id="metadata7">
    <rdf:RDF>
      <cc:Work
         rdf:about="">
        <dc:format>image/svg+xml</dc:format>
        <dc:type
           rdf:resource="http://purl.org/dc/dcmitype/StillImage" />
        <dc:title />
      </cc:Work>
    </rdf:RDF>
  </metadata>
  <g
     inkscape:label="Layer 1"
     inkscape:groupmode="layer"
     id="layer1">
    <polyline
       points="0,-66 0,0 0,0 4,0 8,0 12,0 16,2 20,2 24,3 28,4 32,8 36,8 40,10 44,13 48,15 52,15 56,18 60,18 64,20 68,21 72,27 76,26 80,20 84,16 88,17 92,21 96,27 100,28 104,28 108,28 112,27 116,28 120,29 124,30 128,31 132,34 136,37 140,37 144,39 148,39 152,41 156,46 160,48 164,57 168,58 172,67 176,66 180,60 184,56 188,49 192,46 196,42 200,40 204,50 208,49 212,43 216,41 220,38 224,35 228,32 232,32 236,33 240,31 244,31 248,25 252,14 256,18 260,21 264,23 268,26 272,26 276,27 280,27 284,17 288,13 292,19 296,21 300,20 304,19 308,24 312,25 316,26 316,-66 0,-66"
       style="fill:#ffffff;stroke:#ff0000;stroke-width:4"
       id="polyline7"
       transform="translate(1760.0498,1887.8566)" />
    <polyline
       points="0,134 0,202 0,202 4,203 8,203 12,203 16,204 20,204 24,203 28,203 32,207 36,208 40,209 44,210 48,212 52,213 56,217 60,219 64,222 68,222 72,224 76,224 80,225 84,226 88,226 92,226 96,228 100,228 104,228 108,227 112,227 116,227 120,229 124,230 128,231 132,232 136,234 140,235 144,238 148,246 152,248 156,248 160,251 164,256 168,259 172,259 176,257 180,251 184,247 188,237 192,235 196,231 200,229 204,228 208,229 212,229 216,227 220,223 224,224 228,223 232,224 236,221 240,222 244,221 248,223 252,230 256,237 260,236 264,233 268,237 272,242 276,244 280,240 284,227 288,222 292,219 296,225 300,230 304,231 308,234 312,233 316,230 316,134 0,134"
       style="fill:#ffffff;stroke:#ff0000;stroke-width:4"
       id="polyline9"
       transform="translate(16.999274,78.81509)" />
    <polyline
       points="0,334 0,404 0,404 4,405 8,405 12,405 16,406 20,406 24,406 28,406 32,407 36,406 40,406 44,408 48,408 52,408 56,408 60,409 64,412 68,415 72,418 76,419 80,423 84,424 88,425 92,427 96,432 100,434 104,433 108,432 112,432 116,435 120,438 124,436 128,429 132,425 136,426 140,431 144,433 148,436 152,440 156,445 160,447 164,448 168,447 172,446 176,445 180,442 184,444 188,444 192,443 196,437 200,439 204,443 208,440 212,444 216,441 220,433 224,434 228,441 232,441 236,435 240,432 244,438 248,440 252,449 256,453 260,461 264,460 268,453 272,449 276,444 280,436 284,431 288,437 292,440 296,432 300,425 304,434 308,444 312,445 316,451 316,334 0,334"
       style="fill:#ffffff;stroke:#ff0000;stroke-width:4"
       id="polyline11"
       transform="translate(21.039874,8.1653267)" />
    <polyline
       points="0,534 0,606 0,606 4,606 8,607 12,607 16,608 20,608 24,609 28,609 32,609 36,610 40,611 44,611 48,611 52,611 56,612 60,613 64,615 68,619 72,620 76,620 80,622 84,623 88,628 92,629 96,629 100,628 104,634 108,637 112,641 116,640 120,639 124,641 128,649 132,651 136,652 140,646 144,640 148,627 152,624 156,633 160,642 164,652 168,656 172,655 176,653 180,652 184,650 188,652 192,655 196,656 200,654 204,654 208,657 212,653 216,650 220,645 224,652 228,655 232,654 236,652 240,647 244,640 248,636 252,641 256,643 260,646 264,646 268,639 272,634 276,648 280,652 284,659 288,663 292,661 296,655 300,646 304,641 308,631 312,629 316,643 316,534 0,534"
       style="fill:#ffffff;stroke:#ff0000;stroke-width:4"
       id="polyline13"
       transform="translate(19.019574,-58.423521)" />
    <polyline
       points="0,734 0,804 0,804 4,805 8,806 12,807 16,807 20,808 24,810 28,813 32,820 36,820 40,817 44,815 48,815 52,815 56,816 60,816 64,818 68,818 72,820 76,821 80,826 84,828 88,822 92,825 96,833 100,836 104,838 108,837 112,836 116,837 120,843 124,848 128,854 132,857 136,861 140,861 144,861 148,857 152,851 156,838 160,830 164,839 168,847 172,858 176,862 180,863 184,863 188,863 192,867 196,872 200,869 204,864 208,860 212,857 216,862 220,864 224,859 228,851 232,847 236,844 240,844 244,848 248,846 252,847 256,850 260,852 264,848 268,840 272,839 276,847 280,852 284,859 288,861 292,868 296,868 300,858 304,850 308,838 312,835 316,852 316,734 0,734"
       style="fill:#ffffff;stroke:#ff0000;stroke-width:4"
       id="polyline15"
       transform="translate(21.039874,-125.01237)" />
    <polyline
       points="0,934 0,1003 0,1003 4,1003 8,1004 12,1004 16,1005 20,1006 24,1006 28,1007 32,1009 36,1010 40,1017 44,1021 48,1026 52,1027 56,1028 60,1027 64,1031 68,1035 72,1041 76,1043 80,1046 84,1043 88,1032 92,1028 96,1028 100,1029 104,1032 108,1036 112,1041 116,1041 120,1042 124,1045 128,1050 132,1054 136,1060 140,1062 144,1062 148,1065 152,1062 156,1050 160,1039 164,1035 168,1044 172,1055 176,1056 180,1060 184,1063 188,1069 192,1074 196,1079 200,1081 204,1073 208,1070 212,1073 216,1073 220,1069 224,1063 228,1054 232,1060 236,1067 240,1068 244,1075 248,1076 252,1063 256,1058 260,1048 264,1048 268,1057 272,1056 276,1052 280,1051 284,1051 288,1049 292,1044 296,1043 300,1044 304,1048 308,1060 312,1069 316,1073 316,934 0,934"
       style="fill:#ffffff;stroke:#ff0000;stroke-width:4"
       id="polyline17"
       transform="translate(23.060174,-183.5403)" />
    <polyline
       points="0,1134 0,1207 0,1207 4,1208 8,1210 12,1210 16,1214 20,1216 24,1215 28,1215 32,1219 36,1218 40,1220 44,1223 48,1228 52,1231 56,1234 60,1234 64,1237 68,1239 72,1241 76,1241 80,1241 84,1242 88,1250 92,1251 96,1250 100,1246 104,1245 108,1242 112,1241 116,1243 120,1243 124,1242 128,1242 132,1244 136,1249 140,1253 144,1256 148,1256 152,1255 156,1250 160,1248 164,1241 168,1236 172,1246 176,1255 180,1268 184,1274 188,1284 192,1289 196,1291 200,1290 204,1288 208,1287 212,1281 216,1276 220,1268 224,1269 228,1273 232,1278 236,1279 240,1278 244,1274 248,1270 252,1266 256,1264 260,1255 264,1258 268,1268 272,1272 276,1269 280,1264 284,1255 288,1251 292,1250 296,1252 300,1248 304,1241 308,1248 312,1253 316,1263 316,1134 0,1134"
       style="fill:#ffffff;stroke:#ff0000;stroke-width:4"
       id="polyline19"
       transform="translate(23.060174,-233.96671)" />
    <polyline
       points="0,1334 0,1409 0,1409 4,1409 8,1410 12,1414 16,1418 20,1418 24,1421 28,1422 32,1422 36,1422 40,1426 44,1429 48,1433 52,1435 56,1438 60,1439 64,1439 68,1441 72,1444 76,1444 80,1453 84,1456 88,1458 92,1457 96,1460 100,1459 104,1452 108,1451 112,1462 116,1466 120,1471 124,1468 128,1462 132,1460 136,1465 140,1467 144,1467 148,1464 152,1459 156,1466 160,1472 164,1475 168,1474 172,1454 176,1446 180,1442 184,1450 188,1466 192,1475 196,1492 200,1496 204,1490 208,1487 212,1484 216,1487 220,1491 224,1492 228,1487 232,1486 236,1486 240,1481 244,1470 248,1467 252,1477 256,1479 260,1481 264,1483 268,1477 272,1474 276,1479 280,1474 284,1464 288,1460 292,1454 296,1453 300,1451 304,1449 308,1449 312,1448 316,1447 316,1334 0,1334"
       style="fill:#ffffff;stroke:#ff0000;stroke-width:4"
       id="polyline21"
       transform="translate(1769.04,659.72732)" />
    <polyline
       points="0,1534 0,1613 0,1613 4,1614 8,1614 12,1614 16,1615 20,1616 24,1618 28,1621 32,1622 36,1623 40,1626 44,1628 48,1635 52,1637 56,1642 60,1645 64,1647 68,1647 72,1648 76,1649 80,1649 84,1651 88,1656 92,1661 96,1669 100,1670 104,1672 108,1675 112,1682 116,1680 120,1671 124,1666 128,1680 132,1685 136,1691 140,1690 144,1688 148,1685 152,1684 156,1681 160,1683 164,1693 168,1691 172,1678 176,1670 180,1655 184,1646 188,1647 192,1656 196,1673 200,1680 204,1689 208,1693 212,1704 216,1706 220,1706 224,1705 228,1695 232,1695 236,1693 240,1685 244,1690 248,1697 252,1697 256,1695 260,1690 264,1691 268,1693 272,1693 276,1693 280,1693 284,1689 288,1682 292,1671 296,1667 300,1663 304,1661 308,1655 312,1652 316,1655 316,1534 0,1534"
       style="fill:#ffffff;stroke:#ff0000;stroke-width:4"
       id="polyline23"
       transform="translate(384.75427,-1294.8441)" />
    <polyline
       points="0,1734 0,1819 0,1819 4,1819 8,1820 12,1821 16,1823 20,1823 24,1825 28,1827 32,1835 36,1836 40,1837 44,1840 48,1838 52,1835 56,1844 60,1846 64,1856 68,1862 72,1866 76,1863 80,1865 84,1869 88,1869 92,1870 96,1875 100,1878 104,1883 108,1887 112,1894 116,1892 120,1881 124,1884 128,1891 132,1895 136,1904 140,1910 144,1915 148,1919 152,1919 156,1915 160,1909 164,1890 168,1883 172,1868 176,1863 180,1848 184,1848 188,1853 192,1860 196,1870 200,1873 204,1882 208,1889 212,1909 216,1912 220,1913 224,1913 228,1911 232,1910 236,1910 240,1910 244,1900 248,1898 252,1903 256,1910 260,1911 264,1912 268,1908 272,1905 276,1893 280,1884 284,1884 288,1892 292,1888 296,1879 300,1868 304,1864 308,1859 312,1859 316,1868 316,1734 0,1734"
       style="fill:#ffffff;stroke:#ff0000;stroke-width:4"
       id="polyline25"
       transform="translate(384.75427,-1318.8441)" />
    <polyline
       points="0,1934 0,2039 0,2039 4,2040 8,2037 12,2032 16,2030 20,2030 24,2030 28,2031 32,2034 36,2036 40,2038 44,2038 48,2037 52,2039 56,2049 60,2052 64,2062 68,2067 72,2079 76,2083 80,2081 84,2078 88,2083 92,2087 96,2094 100,2098 104,2104 108,2108 112,2112 116,2110 120,2103 124,2102 128,2113 132,2117 136,2126 140,2128 144,2128 148,2116 152,2110 156,2095 160,2086 164,2073 168,2070 172,2063 176,2055 180,2054 184,2058 188,2067 192,2070 196,2072 200,2075 204,2086 208,2092 212,2106 216,2115 220,2130 224,2135 228,2135 232,2132 236,2123 240,2118 244,2117 248,2120 252,2129 256,2128 260,2124 264,2120 268,2109 272,2104 276,2122 280,2120 284,2102 288,2092 292,2092 296,2096 300,2096 304,2085 308,2071 312,2067 316,2075 316,1934 0,1934"
       style="fill:#ffffff;stroke:#ff0000;stroke-width:4"
       id="polyline27"
       transform="translate(384.75427,-1322.8441)" />
    <polyline
       points="0,2134 0,2244 0,2244 4,2245 8,2253 12,2258 16,2250 20,2241 24,2241 28,2240 32,2243 36,2245 40,2246 44,2247 48,2254 52,2261 56,2267 60,2259 64,2256 68,2262 72,2271 76,2280 80,2296 84,2302 88,2304 92,2301 96,2296 100,2298 104,2312 108,2316 112,2326 116,2328 120,2331 124,2331 128,2326 132,2321 136,2305 140,2298 144,2296 148,2292 152,2287 156,2277 160,2272 164,2262 168,2258 172,2258 176,2260 180,2268 184,2272 188,2280 192,2284 196,2296 200,2302 204,2319 208,2329 212,2346 216,2347 220,2348 224,2348 228,2344 232,2345 236,2349 240,2350 244,2352 248,2352 252,2345 256,2340 260,2331 264,2332 268,2339 272,2338 276,2339 280,2337 284,2332 288,2326 292,2308 296,2302 300,2289 304,2284 308,2280 312,2288 316,2304 316,2134 0,2134"
       style="fill:#ffffff;stroke:#ff0000;stroke-width:4"
       id="polyline29"
       transform="translate(391.42857,-1314.8572)" />
    <polyline
       points="0,2334 0,2457 0,2457 4,2456 8,2454 12,2455 16,2453 20,2450 24,2457 28,2461 32,2464 36,2466 40,2471 44,2474 48,2480 52,2483 56,2484 60,2481 64,2472 68,2465 72,2471 76,2479 80,2493 84,2499 88,2511 92,2515 96,2515 100,2510 104,2504 108,2505 112,2512 116,2515 120,2523 124,2521 128,2514 132,2511 136,2506 140,2503 144,2500 148,2490 152,2487 156,2479 160,2472 164,2462 168,2462 172,2468 176,2469 180,2473 184,2478 188,2484 192,2486 196,2489 200,2493 204,2500 208,2502 212,2516 216,2522 220,2531 224,2539 228,2558 232,2564 236,2568 240,2568 244,2568 248,2565 252,2561 256,2560 260,2556 264,2554 268,2545 272,2541 276,2529 280,2524 284,2516 288,2512 292,2501 296,2495 300,2495 304,2501 308,2514 312,2517 316,2520 316,2334 0,2334"
       style="fill:#ffffff;stroke:#ff0000;stroke-width:4"
       id="polyline31"
       transform="translate(-12.946026,-1000.6601)" />
    <polyline
       points="0,2534 0,2666 0,2666 4,2671 8,2673 12,2674 16,2674 20,2675 24,2665 28,2664 32,2678 36,2681 40,2691 44,2693 48,2698 52,2702 56,2708 60,2708 64,2701 68,2693 72,2696 76,2699 80,2691 84,2689 88,2693 92,2697 96,2695 100,2695 104,2695 108,2697 112,2708 116,2710 120,2710 124,2706 128,2700 132,2700 136,2695 140,2693 144,2688 148,2683 152,2683 156,2675 160,2672 164,2667 168,2665 172,2674 176,2679 180,2682 184,2685 188,2693 192,2694 196,2696 200,2698 204,2707 208,2711 212,2719 216,2719 220,2720 224,2722 228,2732 232,2739 236,2756 240,2764 244,2767 248,2764 252,2755 256,2750 260,2738 264,2731 268,2716 272,2709 276,2707 280,2710 284,2713 288,2721 292,2726 296,2724 300,2728 304,2732 308,2722 312,2715 316,2704 316,2534 0,2534"
       style="fill:#ffffff;stroke:#ff0000;stroke-width:4"
       id="polyline33"
       transform="translate(-10.088826,-962.9458)" />
    <polyline
       points="0,2734 0,2861 0,2861 4,2868 8,2881 12,2881 16,2884 20,2886 24,2890 28,2891 32,2894 36,2894 40,2886 44,2885 48,2900 52,2907 56,2916 60,2920 64,2925 68,2926 72,2934 76,2937 80,2941 84,2943 88,2942 92,2938 96,2935 100,2935 104,2934 108,2934 112,2927 116,2921 120,2915 124,2916 128,2919 132,2918 136,2907 140,2905 144,2903 148,2900 152,2895 156,2887 160,2882 164,2872 168,2871 172,2871 176,2872 180,2874 184,2876 188,2879 192,2881 196,2884 200,2887 204,2894 208,2893 212,2905 216,2913 220,2911 224,2909 228,2911 232,2912 236,2920 240,2920 244,2923 248,2931 252,2945 256,2940 260,2932 264,2928 268,2934 272,2940 276,2942 280,2944 284,2944 288,2943 292,2942 296,2942 300,2934 304,2926 308,2920 312,2919 316,2920 316,2734 0,2734"
       style="fill:#ffffff;stroke:#ff0000;stroke-width:4"
       id="polyline35"
       transform="translate(-10.435526,-921.37085)" />
    <polyline
       points="0,2934 0,3092 0,3092 4,3091 8,3085 12,3079 16,3089 20,3092 24,3099 28,3102 32,3108 36,3111 40,3121 44,3125 48,3128 52,3127 56,3127 60,3121 64,3110 68,3109 72,3121 76,3129 80,3142 84,3146 88,3152 92,3153 96,3157 100,3160 104,3166 108,3159 112,3142 116,3136 120,3128 124,3123 128,3109 132,3107 136,3107 140,3106 144,3102 148,3097 152,3093 156,3090 160,3089 164,3084 168,3086 172,3083 176,3083 180,3081 184,3080 188,3079 192,3078 196,3091 200,3093 204,3087 208,3086 212,3088 216,3091 220,3094 224,3094 228,3098 232,3100 236,3104 240,3106 244,3117 248,3124 252,3135 256,3143 260,3154 264,3153 268,3151 272,3153 276,3155 280,3152 284,3145 288,3141 292,3137 296,3135 300,3128 304,3126 308,3125 312,3121 316,3114 316,2934 0,2934"
       style="fill:#ffffff;stroke:#ff0000;stroke-width:4"
       id="polyline37"
       transform="translate(-12.455826,-891.24475)" />
    <polyline
       points="0,3134 0,3302 0,3302 4,3302 8,3302 12,3302 16,3301 20,3301 24,3303 28,3303 32,3298 36,3298 40,3305 44,3309 48,3317 52,3323 56,3336 60,3343 64,3354 68,3357 72,3363 76,3364 80,3365 84,3366 88,3371 92,3374 96,3379 100,3379 104,3367 108,3359 112,3344 116,3337 120,3334 124,3330 128,3321 132,3318 136,3308 140,3304 144,3302 148,3306 152,3304 156,3296 160,3296 164,3295 168,3293 172,3297 176,3303 180,3299 184,3294 188,3289 192,3284 196,3292 200,3298 204,3303 208,3303 212,3314 216,3314 220,3314 224,3317 228,3319 232,3317 236,3313 240,3313 244,3316 248,3321 252,3329 256,3330 260,3332 264,3341 268,3345 272,3342 276,3333 280,3335 284,3342 288,3337 292,3336 296,3333 300,3330 304,3329 308,3323 312,3317 316,3306 316,3134 0,3134"
       style="fill:#ffffff;stroke:#ff0000;stroke-width:4"
       id="polyline39"
       transform="translate(341.62687,-1794.9598)" />
    <polyline
       points="0,3334 0,3482 0,3482 4,3489 8,3498 12,3500 16,3505 20,3509 24,3517 28,3521 32,3527 36,3530 40,3535 44,3539 48,3543 52,3544 56,3551 60,3553 64,3556 68,3557 72,3563 76,3566 80,3572 84,3574 88,3580 92,3582 96,3586 100,3584 104,3569 108,3563 112,3550 116,3543 120,3532 124,3529 128,3519 132,3517 136,3513 140,3513 144,3514 148,3515 152,3516 156,3508 160,3504 164,3510 168,3517 172,3515 176,3511 180,3507 184,3502 188,3495 192,3494 196,3505 200,3502 204,3499 208,3495 212,3500 216,3501 220,3504 224,3503 228,3503 232,3503 236,3507 240,3511 244,3514 248,3519 252,3532 256,3535 260,3536 264,3535 268,3538 272,3539 276,3545 280,3545 284,3531 288,3534 292,3531 296,3528 300,3534 304,3529 308,3525 312,3528 316,3533 316,3334 0,3334"
       style="fill:#ffffff;stroke:#ff0000;stroke-width:4"
       id="polyline41"
       transform="translate(327.34117,-1737.8169)" />
    <polyline
       points="0,3534 0,3682 0,3682 4,3683 8,3685 12,3685 16,3694 20,3700 24,3707 28,3711 32,3717 36,3720 40,3726 44,3726 48,3732 52,3734 56,3740 60,3743 64,3746 68,3750 72,3757 76,3759 80,3759 84,3760 88,3769 92,3773 96,3776 100,3777 104,3769 108,3766 112,3758 116,3756 120,3754 124,3751 128,3741 132,3737 136,3732 140,3731 144,3730 148,3735 152,3735 156,3738 160,3736 164,3724 168,3720 172,3710 176,3710 180,3708 184,3706 188,3704 192,3704 196,3705 200,3706 204,3712 208,3715 212,3722 216,3724 220,3726 224,3729 228,3723 232,3726 236,3735 240,3739 244,3744 248,3745 252,3741 256,3738 260,3740 264,3742 268,3738 272,3741 276,3744 280,3745 284,3746 288,3750 292,3755 296,3750 300,3741 304,3739 308,3742 312,3738 316,3726 316,3534 0,3534"
       style="fill:#ffffff;stroke:#ff0000;stroke-width:4"
       id="polyline43"
       transform="translate(330.19827,-1680.674)" />
    <polyline
       points="0,3734 0,3869 0,3869 4,3872 8,3879 12,3881 16,3876 20,3877 24,3882 28,3883 32,3888 36,3892 40,3897 44,3899 48,3896 52,3892 56,3894 60,3896 64,3905 68,3914 72,3929 76,3933 80,3942 84,3947 88,3955 92,3958 96,3968 100,3974 104,3983 108,3986 112,3996 116,3998 120,3992 124,3988 128,3983 132,3982 136,3981 140,3980 144,3973 148,3956 152,3948 156,3940 160,3935 164,3927 168,3924 172,3923 176,3922 180,3923 184,3925 188,3921 192,3919 196,3924 200,3927 204,3933 208,3933 212,3944 216,3954 220,3966 224,3966 228,3970 232,3970 236,3970 240,3965 244,3956 248,3951 252,3942 256,3937 260,3928 264,3923 268,3912 272,3909 276,3914 280,3922 284,3933 288,3934 292,3933 296,3933 300,3933 304,3932 308,3929 312,3927 316,3914 316,3734 0,3734"
       style="fill:#ffffff;stroke:#ff0000;stroke-width:4"
       id="polyline45"
       transform="translate(1410.5467,-2362.7216)" />
    <polyline
       points="0,3934 0,4054 0,4054 4,4058 8,4061 12,4063 16,4064 20,4064 24,4073 28,4076 32,4082 36,4085 40,4083 44,4084 48,4096 52,4102 56,4109 60,4111 64,4107 68,4111 72,4119 76,4122 80,4133 84,4140 88,4157 92,4163 96,4177 100,4183 104,4188 108,4188 112,4182 116,4178 120,4175 124,4177 128,4177 132,4180 136,4185 140,4185 144,4185 148,4182 152,4181 156,4175 160,4175 164,4171 168,4168 172,4163 176,4160 180,4163 184,4167 188,4158 192,4151 196,4152 200,4159 204,4166 208,4164 212,4159 216,4155 220,4150 224,4150 228,4146 232,4143 236,4147 240,4147 244,4146 248,4145 252,4138 256,4135 260,4128 264,4126 268,4114 272,4108 276,4092 280,4086 284,4096 288,4094 292,4099 296,4103 300,4107 304,4110 308,4116 312,4120 316,4121 316,3934 0,3934"
       style="fill:#ffffff;stroke:#ff0000;stroke-width:4"
       id="polyline47"
       transform="translate(1402.3669,-2261.6665)" />
    <polyline
       points="0,4134 0,4277 0,4277 4,4283 8,4296 12,4299 16,4303 20,4303 24,4304 28,4305 32,4311 36,4313 40,4317 44,4319 48,4322 52,4323 56,4328 60,4331 64,4337 68,4339 72,4346 76,4349 80,4351 84,4349 88,4352 92,4354 96,4357 100,4356 104,4347 108,4340 112,4326 116,4321 120,4332 124,4335 128,4332 132,4335 136,4346 140,4350 144,4355 148,4344 152,4340 156,4349 160,4355 164,4368 168,4371 172,4375 176,4375 180,4371 184,4368 188,4356 192,4352 196,4355 200,4360 204,4362 208,4360 212,4354 216,4350 220,4335 224,4327 228,4314 232,4308 236,4313 240,4316 244,4327 248,4331 252,4329 256,4330 260,4331 264,4330 268,4323 272,4319 276,4304 280,4301 284,4297 288,4294 292,4291 296,4286 300,4273 304,4273 308,4276 312,4280 316,4287 316,4134 0,4134"
       style="fill:#ffffff;stroke:#ff0000;stroke-width:4"
       id="polyline49"
       transform="translate(1402.3669,-2172.773)" />
    <polyline
       points="0,4334 0,4462 0,4462 4,4463 8,4468 12,4468 16,4474 20,4479 24,4482 28,4483 32,4483 36,4482 40,4482 44,4482 48,4491 52,4497 56,4507 60,4511 64,4515 68,4513 72,4508 76,4506 80,4503 84,4504 88,4513 92,4519 96,4527 100,4526 104,4514 108,4507 112,4500 116,4502 120,4506 124,4511 128,4516 132,4523 136,4530 140,4533 144,4533 148,4524 152,4515 156,4521 160,4528 164,4529 168,4528 172,4528 176,4528 180,4538 184,4543 188,4548 192,4547 196,4540 200,4536 204,4526 208,4532 212,4540 216,4539 220,4532 224,4526 228,4518 232,4513 236,4508 240,4501 244,4494 248,4501 252,4512 256,4510 260,4502 264,4504 268,4507 272,4506 276,4514 280,4514 284,4506 288,4499 292,4491 296,4487 300,4485 304,4483 308,4474 312,4469 316,4463 316,4334 0,4334"
       style="fill:#ffffff;stroke:#ff0000;stroke-width:4"
       id="polyline51"
       transform="translate(1757.9406,-2956.6514)" />
    <polyline
       points="0,4534 0,4654 0,4654 4,4653 8,4655 12,4659 16,4664 20,4665 24,4670 28,4674 32,4682 36,4687 40,4690 44,4692 48,4693 52,4689 56,4681 60,4684 64,4690 68,4689 72,4677 76,4680 80,4685 84,4690 88,4698 92,4699 96,4697 100,4695 104,4688 108,4685 112,4686 116,4690 120,4702 124,4707 128,4710 132,4709 136,4711 140,4708 144,4703 148,4700 152,4703 156,4714 160,4713 164,4703 168,4705 172,4716 176,4720 180,4725 184,4728 188,4733 192,4732 196,4731 200,4730 204,4724 208,4719 212,4714 216,4720 220,4721 224,4720 228,4716 232,4716 236,4715 240,4712 244,4706 248,4702 252,4687 256,4681 260,4679 264,4682 268,4690 272,4692 276,4680 280,4676 284,4686 288,4687 292,4680 296,4675 300,4679 304,4675 308,4663 312,4667 316,4671 316,4534 0,4534"
       style="fill:#ffffff;stroke:#ff0000;stroke-width:4"
       id="polyline53"
       transform="translate(1752.2263,-2926.5383)" />
    <polyline
       points="46,-67 41,-61 41,-34 39,-34 39,-61 34,-67"
       style="fill:#ffffff;stroke:#ff0000;stroke-width:4"
       id="polyline55"
       transform="translate(1760.0498,1887.8566)" />
    <polyline
       points="86,-67 81,-61 81,-34 79,-34 79,-61 74,-67"
       style="fill:#ffffff;stroke:#ff0000;stroke-width:4"
       id="polyline57"
       transform="translate(1760.0498,1887.8566)" />
    <polyline
       points="126,-67 121,-61 121,-34 119,-34 119,-61 114,-67"
       style="fill:#ffffff;stroke:#ff0000;stroke-width:4"
       id="polyline59"
       transform="translate(1760.0498,1887.8566)" />
    <polyline
       points="166,-67 161,-61 161,-34 159,-34 159,-61 154,-67"
       style="fill:#ffffff;stroke:#ff0000;stroke-width:4"
       id="polyline61"
       transform="translate(1760.0498,1887.8566)" />
    <polyline
       points="206,-67 201,-61 201,-34 199,-34 199,-61 194,-67"
       style="fill:#ffffff;stroke:#ff0000;stroke-width:4"
       id="polyline63"
       transform="translate(1760.0498,1887.8566)" />
    <polyline
       points="246,-67 241,-61 241,-34 239,-34 239,-61 234,-67"
       style="fill:#ffffff;stroke:#ff0000;stroke-width:4"
       id="polyline65"
       transform="translate(1760.0498,1887.8566)" />
    <polyline
       points="286,-67 281,-61 281,-34 279,-34 279,-61 274,-67"
       style="fill:#ffffff;stroke:#ff0000;stroke-width:4"
       id="polyline67"
       transform="translate(1760.0498,1887.8566)" />
    <polyline
       points="46,133 41,139 41,166 39,166 39,139 34,133"
       style="fill:#ffffff;stroke:#ff0000;stroke-width:4"
       id="polyline69"
       transform="translate(16.999274,78.81509)" />
    <polyline
       points="86,133 81,139 81,166 79,166 79,139 74,133"
       style="fill:#ffffff;stroke:#ff0000;stroke-width:4"
       id="polyline71"
       transform="translate(16.999274,78.81509)" />
    <polyline
       points="126,133 121,139 121,166 119,166 119,139 114,133"
       style="fill:#ffffff;stroke:#ff0000;stroke-width:4"
       id="polyline73"
       transform="translate(16.999274,78.81509)" />
    <polyline
       points="166,133 161,139 161,166 159,166 159,139 154,133"
       style="fill:#ffffff;stroke:#ff0000;stroke-width:4"
       id="polyline75"
       transform="translate(16.999274,78.81509)" />
    <polyline
       points="206,133 201,139 201,166 199,166 199,139 194,133"
       style="fill:#ffffff;stroke:#ff0000;stroke-width:4"
       id="polyline77"
       transform="translate(16.999274,78.81509)" />
    <polyline
       points="246,133 241,139 241,166 239,166 239,139 234,133"
       style="fill:#ffffff;stroke:#ff0000;stroke-width:4"
       id="polyline79"
       transform="translate(16.999274,78.81509)" />
    <polyline
       points="286,133 281,139 281,166 279,166 279,139 274,133"
       style="fill:#ffffff;stroke:#ff0000;stroke-width:4"
       id="polyline81"
       transform="translate(16.999274,78.81509)" />
    <polyline
       points="46,333 41,339 41,366 39,366 39,339 34,333"
       style="fill:#ffffff;stroke:#ff0000;stroke-width:4"
       id="polyline83"
       transform="translate(21.039874,8.1653267)" />
    <polyline
       points="86,333 81,339 81,366 79,366 79,339 74,333"
       style="fill:#ffffff;stroke:#ff0000;stroke-width:4"
       id="polyline85"
       transform="translate(21.039874,8.1653267)" />
    <polyline
       points="126,333 121,339 121,366 119,366 119,339 114,333"
       style="fill:#ffffff;stroke:#ff0000;stroke-width:4"
       id="polyline87"
       transform="translate(21.039874,8.1653267)" />
    <polyline
       points="166,333 161,339 161,366 159,366 159,339 154,333"
       style="fill:#ffffff;stroke:#ff0000;stroke-width:4"
       id="polyline89"
       transform="translate(21.039874,8.1653267)" />
    <polyline
       points="206,333 201,339 201,366 199,366 199,339 194,333"
       style="fill:#ffffff;stroke:#ff0000;stroke-width:4"
       id="polyline91"
       transform="translate(21.039874,8.1653267)" />
    <polyline
       points="246,333 241,339 241,366 239,366 239,339 234,333"
       style="fill:#ffffff;stroke:#ff0000;stroke-width:4"
       id="polyline93"
       transform="translate(21.039874,8.1653267)" />
    <polyline
       points="286,333 281,339 281,366 279,366 279,339 274,333"
       style="fill:#ffffff;stroke:#ff0000;stroke-width:4"
       id="polyline95"
       transform="translate(21.039874,8.1653267)" />
    <polyline
       points="46,533 41,539 41,566 39,566 39,539 34,533"
       style="fill:#ffffff;stroke:#ff0000;stroke-width:4"
       id="polyline97"
       transform="translate(19.019574,-58.423521)" />
    <polyline
       points="86,533 81,539 81,566 79,566 79,539 74,533"
       style="fill:#ffffff;stroke:#ff0000;stroke-width:4"
       id="polyline99"
       transform="translate(19.019574,-58.423521)" />
    <polyline
       points="126,533 121,539 121,566 119,566 119,539 114,533"
       style="fill:#ffffff;stroke:#ff0000;stroke-width:4"
       id="polyline101"
       transform="translate(19.019574,-58.423521)" />
    <polyline
       points="166,533 161,539 161,566 159,566 159,539 154,533"
       style="fill:#ffffff;stroke:#ff0000;stroke-width:4"
       id="polyline103"
       transform="translate(19.019574,-58.423521)" />
    <polyline
       points="206,533 201,539 201,566 199,566 199,539 194,533"
       style="fill:#ffffff;stroke:#ff0000;stroke-width:4"
       id="polyline105"
       transform="translate(19.019574,-58.423521)" />
    <polyline
       points="246,533 241,539 241,566 239,566 239,539 234,533"
       style="fill:#ffffff;stroke:#ff0000;stroke-width:4"
       id="polyline107"
       transform="translate(19.019574,-58.423521)" />
    <polyline
       points="286,533 281,539 281,566 279,566 279,539 274,533"
       style="fill:#ffffff;stroke:#ff0000;stroke-width:4"
       id="polyline109"
       transform="translate(19.019574,-58.423521)" />
    <polyline
       points="46,733 41,739 41,766 39,766 39,739 34,733"
       style="fill:#ffffff;stroke:#ff0000;stroke-width:4"
       id="polyline111"
       transform="translate(21.039874,-125.01237)" />
    <polyline
       points="86,733 81,739 81,766 79,766 79,739 74,733"
       style="fill:#ffffff;stroke:#ff0000;stroke-width:4"
       id="polyline113"
       transform="translate(21.039874,-125.01237)" />
    <polyline
       points="126,733 121,739 121,766 119,766 119,739 114,733"
       style="fill:#ffffff;stroke:#ff0000;stroke-width:4"
       id="polyline115"
       transform="translate(21.039874,-125.01237)" />
    <polyline
       points="166,733 161,739 161,766 159,766 159,739 154,733"
       style="fill:#ffffff;stroke:#ff0000;stroke-width:4"
       id="polyline117"
       transform="translate(21.039874,-125.01237)" />
    <polyline
       points="206,733 201,739 201,766 199,766 199,739 194,733"
       style="fill:#ffffff;stroke:#ff0000;stroke-width:4"
       id="polyline119"
       transform="translate(21.039874,-125.01237)" />
    <polyline
       points="246,733 241,739 241,766 239,766 239,739 234,733"
       style="fill:#ffffff;stroke:#ff0000;stroke-width:4"
       id="polyline121"
       transform="translate(21.039874,-125.01237)" />
    <polyline
       points="286,733 281,739 281,766 279,766 279,739 274,733"
       style="fill:#ffffff;stroke:#ff0000;stroke-width:4"
       id="polyline123"
       transform="translate(21.039874,-125.01237)" />
    <polyline
       points="46,933 41,939 41,966 39,966 39,939 34,933"
       style="fill:#ffffff;stroke:#ff0000;stroke-width:4"
       id="polyline125"
       transform="translate(23.060174,-183.5403)" />
    <polyline
       points="86,933 81,939 81,966 79,966 79,939 74,933"
       style="fill:#ffffff;stroke:#ff0000;stroke-width:4"
       id="polyline127"
       transform="translate(23.060174,-183.5403)" />
    <polyline
       points="126,933 121,939 121,966 119,966 119,939 114,933"
       style="fill:#ffffff;stroke:#ff0000;stroke-width:4"
       id="polyline129"
       transform="translate(23.060174,-183.5403)" />
    <polyline
       points="166,933 161,939 161,966 159,966 159,939 154,933"
       style="fill:#ffffff;stroke:#ff0000;stroke-width:4"
       id="polyline131"
       transform="translate(23.060174,-183.5403)" />
    <polyline
       points="206,933 201,939 201,966 199,966 199,939 194,933"
       style="fill:#ffffff;stroke:#ff0000;stroke-width:4"
       id="polyline133"
       transform="translate(23.060174,-183.5403)" />
    <polyline
       points="246,933 241,939 241,966 239,966 239,939 234,933"
       style="fill:#ffffff;stroke:#ff0000;stroke-width:4"
       id="polyline135"
       transform="translate(23.060174,-183.5403)" />
    <polyline
       points="286,933 281,939 281,966 279,966 279,939 274,933"
       style="fill:#ffffff;stroke:#ff0000;stroke-width:4"
       id="polyline137"
       transform="translate(23.060174,-183.5403)" />
    <polyline
       points="46,1133 41,1139 41,1166 39,1166 39,1139 34,1133"
       style="fill:#ffffff;stroke:#ff0000;stroke-width:4"
       id="polyline139"
       transform="translate(23.060174,-233.96671)" />
    <polyline
       points="86,1133 81,1139 81,1166 79,1166 79,1139 74,1133"
       style="fill:#ffffff;stroke:#ff0000;stroke-width:4"
       id="polyline141"
       transform="translate(23.060174,-233.96671)" />
    <polyline
       points="126,1133 121,1139 121,1166 119,1166 119,1139 114,1133"
       style="fill:#ffffff;stroke:#ff0000;stroke-width:4"
       id="polyline143"
       transform="translate(23.060174,-233.96671)" />
    <polyline
       points="166,1133 161,1139 161,1166 159,1166 159,1139 154,1133"
       style="fill:#ffffff;stroke:#ff0000;stroke-width:4"
       id="polyline145"
       transform="translate(23.060174,-233.96671)" />
    <polyline
       points="206,1133 201,1139 201,1166 199,1166 199,1139 194,1133"
       style="fill:#ffffff;stroke:#ff0000;stroke-width:4"
       id="polyline147"
       transform="translate(23.060174,-233.96671)" />
    <polyline
       points="246,1133 241,1139 241,1166 239,1166 239,1139 234,1133"
       style="fill:#ffffff;stroke:#ff0000;stroke-width:4"
       id="polyline149"
       transform="translate(23.060174,-233.96671)" />
    <polyline
       points="286,1133 281,1139 281,1166 279,1166 279,1139 274,1133"
       style="fill:#ffffff;stroke:#ff0000;stroke-width:4"
       id="polyline151"
       transform="translate(23.060174,-233.96671)" />
    <polyline
       points="46,1333 41,1339 41,1366 39,1366 39,1339 34,1333"
       style="fill:#ffffff;stroke:#ff0000;stroke-width:4"
       id="polyline153"
       transform="translate(1769.04,659.72732)" />
    <polyline
       points="86,1333 81,1339 81,1366 79,1366 79,1339 74,1333"
       style="fill:#ffffff;stroke:#ff0000;stroke-width:4"
       id="polyline155"
       transform="translate(1769.04,659.72732)" />
    <polyline
       points="126,1333 121,1339 121,1366 119,1366 119,1339 114,1333"
       style="fill:#ffffff;stroke:#ff0000;stroke-width:4"
       id="polyline157"
       transform="translate(1769.04,659.72732)" />
    <polyline
       points="166,1333 161,1339 161,1366 159,1366 159,1339 154,1333"
       style="fill:#ffffff;stroke:#ff0000;stroke-width:4"
       id="polyline159"
       transform="translate(1769.04,659.72732)" />
    <polyline
       points="206,1333 201,1339 201,1366 199,1366 199,1339 194,1333"
       style="fill:#ffffff;stroke:#ff0000;stroke-width:4"
       id="polyline161"
       transform="translate(1769.04,659.72732)" />
    <polyline
       points="246,1333 241,1339 241,1366 239,1366 239,1339 234,1333"
       style="fill:#ffffff;stroke:#ff0000;stroke-width:4"
       id="polyline163"
       transform="translate(1769.04,659.72732)" />
    <polyline
       points="286,1333 281,1339 281,1366 279,1366 279,1339 274,1333"
       style="fill:#ffffff;stroke:#ff0000;stroke-width:4"
       id="polyline165"
       transform="translate(1769.04,659.72732)" />
    <polyline
       points="46,1533 41,1539 41,1566 39,1566 39,1539 34,1533"
       style="fill:#ffffff;stroke:#ff0000;stroke-width:4"
       id="polyline167"
       transform="translate(384.75427,-1294.8441)" />
    <polyline
       points="86,1533 81,1539 81,1566 79,1566 79,1539 74,1533"
       style="fill:#ffffff;stroke:#ff0000;stroke-width:4"
       id="polyline169"
       transform="translate(384.75427,-1294.8441)" />
    <polyline
       points="126,1533 121,1539 121,1566 119,1566 119,1539 114,1533"
       style="fill:#ffffff;stroke:#ff0000;stroke-width:4"
       id="polyline171"
       transform="translate(384.75427,-1294.8441)" />
    <polyline
       points="166,1533 161,1539 161,1566 159,1566 159,1539 154,1533"
       style="fill:#ffffff;stroke:#ff0000;stroke-width:4"
       id="polyline173"
       transform="translate(384.75427,-1294.8441)" />
    <polyline
       points="206,1533 201,1539 201,1566 199,1566 199,1539 194,1533"
       style="fill:#ffffff;stroke:#ff0000;stroke-width:4"
       id="polyline175"
       transform="translate(384.75427,-1294.8441)" />
    <polyline
       points="246,1533 241,1539 241,1566 239,1566 239,1539 234,1533"
       style="fill:#ffffff;stroke:#ff0000;stroke-width:4"
       id="polyline177"
       transform="translate(384.75427,-1294.8441)" />
    <polyline
       points="286,1533 281,1539 281,1566 279,1566 279,1539 274,1533"
       style="fill:#ffffff;stroke:#ff0000;stroke-width:4"
       id="polyline179"
       transform="translate(384.75427,-1294.8441)" />
    <polyline
       points="46,1733 41,1739 41,1766 39,1766 39,1739 34,1733"
       style="fill:#ffffff;stroke:#ff0000;stroke-width:4"
       id="polyline181"
       transform="translate(384.75427,-1318.8441)" />
    <polyline
       points="86,1733 81,1739 81,1766 79,1766 79,1739 74,1733"
       style="fill:#ffffff;stroke:#ff0000;stroke-width:4"
       id="polyline183"
       transform="translate(384.75427,-1318.8441)" />
    <polyline
       points="126,1733 121,1739 121,1766 119,1766 119,1739 114,1733"
       style="fill:#ffffff;stroke:#ff0000;stroke-width:4"
       id="polyline185"
       transform="translate(384.75427,-1318.8441)" />
    <polyline
       points="166,1733 161,1739 161,1766 159,1766 159,1739 154,1733"
       style="fill:#ffffff;stroke:#ff0000;stroke-width:4"
       id="polyline187"
       transform="translate(384.75427,-1318.8441)" />
    <polyline
       points="206,1733 201,1739 201,1766 199,1766 199,1739 194,1733"
       style="fill:#ffffff;stroke:#ff0000;stroke-width:4"
       id="polyline189"
       transform="translate(384.75427,-1318.8441)" />
    <polyline
       points="246,1733 241,1739 241,1766 239,1766 239,1739 234,1733"
       style="fill:#ffffff;stroke:#ff0000;stroke-width:4"
       id="polyline191"
       transform="translate(384.75427,-1318.8441)" />
    <polyline
       points="286,1733 281,1739 281,1766 279,1766 279,1739 274,1733"
       style="fill:#ffffff;stroke:#ff0000;stroke-width:4"
       id="polyline193"
       transform="translate(384.75427,-1318.8441)" />
    <polyline
       points="46,1933 41,1939 41,1966 39,1966 39,1939 34,1933"
       style="fill:#ffffff;stroke:#ff0000;stroke-width:4"
       id="polyline195"
       transform="translate(384.75427,-1322.8441)" />
    <polyline
       points="86,1933 81,1939 81,1966 79,1966 79,1939 74,1933"
       style="fill:#ffffff;stroke:#ff0000;stroke-width:4"
       id="polyline197"
       transform="translate(384.75427,-1322.8441)" />
    <polyline
       points="126,1933 121,1939 121,1966 119,1966 119,1939 114,1933"
       style="fill:#ffffff;stroke:#ff0000;stroke-width:4"
       id="polyline199"
       transform="translate(384.75427,-1322.8441)" />
    <polyline
       points="166,1933 161,1939 161,1966 159,1966 159,1939 154,1933"
       style="fill:#ffffff;stroke:#ff0000;stroke-width:4"
       id="polyline201"
       transform="translate(384.75427,-1322.8441)" />
    <polyline
       points="206,1933 201,1939 201,1966 199,1966 199,1939 194,1933"
       style="fill:#ffffff;stroke:#ff0000;stroke-width:4"
       id="polyline203"
       transform="translate(384.75427,-1322.8441)" />
    <polyline
       points="246,1933 241,1939 241,1966 239,1966 239,1939 234,1933"
       style="fill:#ffffff;stroke:#ff0000;stroke-width:4"
       id="polyline205"
       transform="translate(384.75427,-1322.8441)" />
    <polyline
       points="286,1933 281,1939 281,1966 279,1966 279,1939 274,1933"
       style="fill:#ffffff;stroke:#ff0000;stroke-width:4"
       id="polyline207"
       transform="translate(384.75427,-1322.8441)" />
    <polyline
       points="46,2133 41,2139 41,2166 39,2166 39,2139 34,2133"
       style="fill:#ffffff;stroke:#ff0000;stroke-width:4"
       id="polyline209"
       transform="translate(391.42857,-1314.8572)" />
    <polyline
       points="86,2133 81,2139 81,2166 79,2166 79,2139 74,2133"
       style="fill:#ffffff;stroke:#ff0000;stroke-width:4"
       id="polyline211"
       transform="translate(391.42857,-1314.8572)" />
    <polyline
       points="126,2133 121,2139 121,2166 119,2166 119,2139 114,2133"
       style="fill:#ffffff;stroke:#ff0000;stroke-width:4"
       id="polyline213"
       transform="translate(391.42857,-1314.8572)" />
    <polyline
       points="166,2133 161,2139 161,2166 159,2166 159,2139 154,2133"
       style="fill:#ffffff;stroke:#ff0000;stroke-width:4"
       id="polyline215"
       transform="translate(391.42857,-1314.8572)" />
    <polyline
       points="206,2133 201,2139 201,2166 199,2166 199,2139 194,2133"
       style="fill:#ffffff;stroke:#ff0000;stroke-width:4"
       id="polyline217"
       transform="translate(391.42857,-1314.8572)" />
    <polyline
       points="246,2133 241,2139 241,2166 239,2166 239,2139 234,2133"
       style="fill:#ffffff;stroke:#ff0000;stroke-width:4"
       id="polyline219"
       transform="translate(391.42857,-1314.8572)" />
    <polyline
       points="286,2133 281,2139 281,2166 279,2166 279,2139 274,2133"
       style="fill:#ffffff;stroke:#ff0000;stroke-width:4"
       id="polyline221"
       transform="translate(391.42857,-1314.8572)" />
    <polyline
       points="46,2333 41,2339 41,2366 39,2366 39,2339 34,2333"
       style="fill:#ffffff;stroke:#ff0000;stroke-width:4"
       id="polyline223"
       transform="translate(-12.946026,-1000.6601)" />
    <polyline
       points="86,2333 81,2339 81,2366 79,2366 79,2339 74,2333"
       style="fill:#ffffff;stroke:#ff0000;stroke-width:4"
       id="polyline225"
       transform="translate(-12.946026,-1000.6601)" />
    <polyline
       points="126,2333 121,2339 121,2366 119,2366 119,2339 114,2333"
       style="fill:#ffffff;stroke:#ff0000;stroke-width:4"
       id="polyline227"
       transform="translate(-12.946026,-1000.6601)" />
    <polyline
       points="166,2333 161,2339 161,2366 159,2366 159,2339 154,2333"
       style="fill:#ffffff;stroke:#ff0000;stroke-width:4"
       id="polyline229"
       transform="translate(-12.946026,-1000.6601)" />
    <polyline
       points="206,2333 201,2339 201,2366 199,2366 199,2339 194,2333"
       style="fill:#ffffff;stroke:#ff0000;stroke-width:4"
       id="polyline231"
       transform="translate(-12.946026,-1000.6601)" />
    <polyline
       points="246,2333 241,2339 241,2366 239,2366 239,2339 234,2333"
       style="fill:#ffffff;stroke:#ff0000;stroke-width:4"
       id="polyline233"
       transform="translate(-12.946026,-1000.6601)" />
    <polyline
       points="286,2333 281,2339 281,2366 279,2366 279,2339 274,2333"
       style="fill:#ffffff;stroke:#ff0000;stroke-width:4"
       id="polyline235"
       transform="translate(-12.946026,-1000.6601)" />
    <polyline
       points="46,2533 41,2539 41,2566 39,2566 39,2539 34,2533"
       style="fill:#ffffff;stroke:#ff0000;stroke-width:4"
       id="polyline237"
       transform="translate(-10.088826,-962.9458)" />
    <polyline
       points="86,2533 81,2539 81,2566 79,2566 79,2539 74,2533"
       style="fill:#ffffff;stroke:#ff0000;stroke-width:4"
       id="polyline239"
       transform="translate(-10.088826,-962.9458)" />
    <polyline
       points="126,2533 121,2539 121,2566 119,2566 119,2539 114,2533"
       style="fill:#ffffff;stroke:#ff0000;stroke-width:4"
       id="polyline241"
       transform="translate(-10.088826,-962.9458)" />
    <polyline
       points="166,2533 161,2539 161,2566 159,2566 159,2539 154,2533"
       style="fill:#ffffff;stroke:#ff0000;stroke-width:4"
       id="polyline243"
       transform="translate(-10.088826,-962.9458)" />
    <polyline
       points="206,2533 201,2539 201,2566 199,2566 199,2539 194,2533"
       style="fill:#ffffff;stroke:#ff0000;stroke-width:4"
       id="polyline245"
       transform="translate(-10.088826,-962.9458)" />
    <polyline
       points="246,2533 241,2539 241,2566 239,2566 239,2539 234,2533"
       style="fill:#ffffff;stroke:#ff0000;stroke-width:4"
       id="polyline247"
       transform="translate(-10.088826,-962.9458)" />
    <polyline
       points="286,2533 281,2539 281,2566 279,2566 279,2539 274,2533"
       style="fill:#ffffff;stroke:#ff0000;stroke-width:4"
       id="polyline249"
       transform="translate(-10.088826,-962.9458)" />
    <polyline
       points="46,2733 41,2739 41,2766 39,2766 39,2739 34,2733"
       style="fill:#ffffff;stroke:#ff0000;stroke-width:4"
       id="polyline251"
       transform="translate(-10.435526,-921.37085)" />
    <polyline
       points="86,2733 81,2739 81,2766 79,2766 79,2739 74,2733"
       style="fill:#ffffff;stroke:#ff0000;stroke-width:4"
       id="polyline253"
       transform="translate(-10.435526,-921.37085)" />
    <polyline
       points="126,2733 121,2739 121,2766 119,2766 119,2739 114,2733"
       style="fill:#ffffff;stroke:#ff0000;stroke-width:4"
       id="polyline255"
       transform="translate(-10.435526,-921.37085)" />
    <polyline
       points="166,2733 161,2739 161,2766 159,2766 159,2739 154,2733"
       style="fill:#ffffff;stroke:#ff0000;stroke-width:4"
       id="polyline257"
       transform="translate(-10.435526,-921.37085)" />
    <polyline
       points="206,2733 201,2739 201,2766 199,2766 199,2739 194,2733"
       style="fill:#ffffff;stroke:#ff0000;stroke-width:4"
       id="polyline259"
       transform="translate(-10.435526,-921.37085)" />
    <polyline
       points="246,2733 241,2739 241,2766 239,2766 239,2739 234,2733"
       style="fill:#ffffff;stroke:#ff0000;stroke-width:4"
       id="polyline261"
       transform="translate(-10.435526,-921.37085)" />
    <polyline
       points="286,2733 281,2739 281,2766 279,2766 279,2739 274,2733"
       style="fill:#ffffff;stroke:#ff0000;stroke-width:4"
       id="polyline263"
       transform="translate(-10.435526,-921.37085)" />
    <polyline
       points="46,2933 41,2939 41,2966 39,2966 39,2939 34,2933"
       style="fill:#ffffff;stroke:#ff0000;stroke-width:4"
       id="polyline265"
       transform="translate(-12.455826,-891.24475)" />
    <polyline
       points="86,2933 81,2939 81,2966 79,2966 79,2939 74,2933"
       style="fill:#ffffff;stroke:#ff0000;stroke-width:4"
       id="polyline267"
       transform="translate(-12.455826,-891.24475)" />
    <polyline
       points="126,2933 121,2939 121,2966 119,2966 119,2939 114,2933"
       style="fill:#ffffff;stroke:#ff0000;stroke-width:4"
       id="polyline269"
       transform="translate(-12.455826,-891.24475)" />
    <polyline
       points="166,2933 161,2939 161,2966 159,2966 159,2939 154,2933"
       style="fill:#ffffff;stroke:#ff0000;stroke-width:4"
       id="polyline271"
       transform="translate(-12.455826,-891.24475)" />
    <polyline
       points="206,2933 201,2939 201,2966 199,2966 199,2939 194,2933"
       style="fill:#ffffff;stroke:#ff0000;stroke-width:4"
       id="polyline273"
       transform="translate(-12.455826,-891.24475)" />
    <polyline
       points="246,2933 241,2939 241,2966 239,2966 239,2939 234,2933"
       style="fill:#ffffff;stroke:#ff0000;stroke-width:4"
       id="polyline275"
       transform="translate(-12.455826,-891.24475)" />
    <polyline
       points="286,2933 281,2939 281,2966 279,2966 279,2939 274,2933"
       style="fill:#ffffff;stroke:#ff0000;stroke-width:4"
       id="polyline277"
       transform="translate(-12.455826,-891.24475)" />
    <polyline
       points="46,3133 41,3139 41,3166 39,3166 39,3139 34,3133"
       style="fill:#ffffff;stroke:#ff0000;stroke-width:4"
       id="polyline279"
       transform="translate(341.62687,-1794.9598)" />
    <polyline
       points="86,3133 81,3139 81,3166 79,3166 79,3139 74,3133"
       style="fill:#ffffff;stroke:#ff0000;stroke-width:4"
       id="polyline281"
       transform="translate(341.62687,-1794.9598)" />
    <polyline
       points="126,3133 121,3139 121,3166 119,3166 119,3139 114,3133"
       style="fill:#ffffff;stroke:#ff0000;stroke-width:4"
       id="polyline283"
       transform="translate(341.62687,-1794.9598)" />
    <polyline
       points="166,3133 161,3139 161,3166 159,3166 159,3139 154,3133"
       style="fill:#ffffff;stroke:#ff0000;stroke-width:4"
       id="polyline285"
       transform="translate(341.62687,-1794.9598)" />
    <polyline
       points="206,3133 201,3139 201,3166 199,3166 199,3139 194,3133"
       style="fill:#ffffff;stroke:#ff0000;stroke-width:4"
       id="polyline287"
       transform="translate(341.62687,-1794.9598)" />
    <polyline
       points="246,3133 241,3139 241,3166 239,3166 239,3139 234,3133"
       style="fill:#ffffff;stroke:#ff0000;stroke-width:4"
       id="polyline289"
       transform="translate(341.62687,-1794.9598)" />
    <polyline
       points="286,3133 281,3139 281,3166 279,3166 279,3139 274,3133"
       style="fill:#ffffff;stroke:#ff0000;stroke-width:4"
       id="polyline291"
       transform="translate(341.62687,-1794.9598)" />
    <polyline
       points="46,3333 41,3339 41,3366 39,3366 39,3339 34,3333"
       style="fill:#ffffff;stroke:#ff0000;stroke-width:4"
       id="polyline293"
       transform="translate(327.34117,-1737.8169)" />
    <polyline
       points="86,3333 81,3339 81,3366 79,3366 79,3339 74,3333"
       style="fill:#ffffff;stroke:#ff0000;stroke-width:4"
       id="polyline295"
       transform="translate(327.34117,-1737.8169)" />
    <polyline
       points="126,3333 121,3339 121,3366 119,3366 119,3339 114,3333"
       style="fill:#ffffff;stroke:#ff0000;stroke-width:4"
       id="polyline297"
       transform="translate(327.34117,-1737.8169)" />
    <polyline
       points="166,3333 161,3339 161,3366 159,3366 159,3339 154,3333"
       style="fill:#ffffff;stroke:#ff0000;stroke-width:4"
       id="polyline299"
       transform="translate(327.34117,-1737.8169)" />
    <polyline
       points="206,3333 201,3339 201,3366 199,3366 199,3339 194,3333"
       style="fill:#ffffff;stroke:#ff0000;stroke-width:4"
       id="polyline301"
       transform="translate(327.34117,-1737.8169)" />
    <polyline
       points="246,3333 241,3339 241,3366 239,3366 239,3339 234,3333"
       style="fill:#ffffff;stroke:#ff0000;stroke-width:4"
       id="polyline303"
       transform="translate(327.34117,-1737.8169)" />
    <polyline
       points="286,3333 281,3339 281,3366 279,3366 279,3339 274,3333"
       style="fill:#ffffff;stroke:#ff0000;stroke-width:4"
       id="polyline305"
       transform="translate(327.34117,-1737.8169)" />
    <polyline
       points="46,3533 41,3539 41,3566 39,3566 39,3539 34,3533"
       style="fill:#ffffff;stroke:#ff0000;stroke-width:4"
       id="polyline307"
       transform="translate(330.19827,-1680.674)" />
    <polyline
       points="86,3533 81,3539 81,3566 79,3566 79,3539 74,3533"
       style="fill:#ffffff;stroke:#ff0000;stroke-width:4"
       id="polyline309"
       transform="translate(330.19827,-1680.674)" />
    <polyline
       points="126,3533 121,3539 121,3566 119,3566 119,3539 114,3533"
       style="fill:#ffffff;stroke:#ff0000;stroke-width:4"
       id="polyline311"
       transform="translate(330.19827,-1680.674)" />
    <polyline
       points="166,3533 161,3539 161,3566 159,3566 159,3539 154,3533"
       style="fill:#ffffff;stroke:#ff0000;stroke-width:4"
       id="polyline313"
       transform="translate(330.19827,-1680.674)" />
    <polyline
       points="206,3533 201,3539 201,3566 199,3566 199,3539 194,3533"
       style="fill:#ffffff;stroke:#ff0000;stroke-width:4"
       id="polyline315"
       transform="translate(330.19827,-1680.674)" />
    <polyline
       points="246,3533 241,3539 241,3566 239,3566 239,3539 234,3533"
       style="fill:#ffffff;stroke:#ff0000;stroke-width:4"
       id="polyline317"
       transform="translate(330.19827,-1680.674)" />
    <polyline
       points="286,3533 281,3539 281,3566 279,3566 279,3539 274,3533"
       style="fill:#ffffff;stroke:#ff0000;stroke-width:4"
       id="polyline319"
       transform="translate(330.19827,-1680.674)" />
    <polyline
       points="46,3733 41,3739 41,3766 39,3766 39,3739 34,3733"
       style="fill:#ffffff;stroke:#ff0000;stroke-width:4"
       id="polyline321"
       transform="translate(1410.5467,-2362.7216)" />
    <polyline
       points="86,3733 81,3739 81,3766 79,3766 79,3739 74,3733"
       style="fill:#ffffff;stroke:#ff0000;stroke-width:4"
       id="polyline323"
       transform="translate(1410.5467,-2362.7216)" />
    <polyline
       points="126,3733 121,3739 121,3766 119,3766 119,3739 114,3733"
       style="fill:#ffffff;stroke:#ff0000;stroke-width:4"
       id="polyline325"
       transform="translate(1410.5467,-2362.7216)" />
    <polyline
       points="166,3733 161,3739 161,3766 159,3766 159,3739 154,3733"
       style="fill:#ffffff;stroke:#ff0000;stroke-width:4"
       id="polyline327"
       transform="translate(1410.5467,-2362.7216)" />
    <polyline
       points="206,3733 201,3739 201,3766 199,3766 199,3739 194,3733"
       style="fill:#ffffff;stroke:#ff0000;stroke-width:4"
       id="polyline329"
       transform="translate(1410.5467,-2362.7216)" />
    <polyline
       points="246,3733 241,3739 241,3766 239,3766 239,3739 234,3733"
       style="fill:#ffffff;stroke:#ff0000;stroke-width:4"
       id="polyline331"
       transform="translate(1410.5467,-2362.7216)" />
    <polyline
       points="286,3733 281,3739 281,3766 279,3766 279,3739 274,3733"
       style="fill:#ffffff;stroke:#ff0000;stroke-width:4"
       id="polyline333"
       transform="translate(1410.5467,-2362.7216)" />
    <polyline
       points="46,3933 41,3939 41,3966 39,3966 39,3939 34,3933"
       style="fill:#ffffff;stroke:#ff0000;stroke-width:4"
       id="polyline335"
       transform="translate(1402.3669,-2261.6665)" />
    <polyline
       points="86,3933 81,3939 81,3966 79,3966 79,3939 74,3933"
       style="fill:#ffffff;stroke:#ff0000;stroke-width:4"
       id="polyline337"
       transform="translate(1402.3669,-2261.6665)" />
    <polyline
       points="126,3933 121,3939 121,3966 119,3966 119,3939 114,3933"
       style="fill:#ffffff;stroke:#ff0000;stroke-width:4"
       id="polyline339"
       transform="translate(1402.3669,-2261.6665)" />
    <polyline
       points="166,3933 161,3939 161,3966 159,3966 159,3939 154,3933"
       style="fill:#ffffff;stroke:#ff0000;stroke-width:4"
       id="polyline341"
       transform="translate(1402.3669,-2261.6665)" />
    <polyline
       points="206,3933 201,3939 201,3966 199,3966 199,3939 194,3933"
       style="fill:#ffffff;stroke:#ff0000;stroke-width:4"
       id="polyline343"
       transform="translate(1402.3669,-2261.6665)" />
    <polyline
       points="246,3933 241,3939 241,3966 239,3966 239,3939 234,3933"
       style="fill:#ffffff;stroke:#ff0000;stroke-width:4"
       id="polyline345"
       transform="translate(1402.3669,-2261.6665)" />
    <polyline
       points="286,3933 281,3939 281,3966 279,3966 279,3939 274,3933"
       style="fill:#ffffff;stroke:#ff0000;stroke-width:4"
       id="polyline347"
       transform="translate(1402.3669,-2261.6665)" />
    <polyline
       points="46,4133 41,4139 41,4166 39,4166 39,4139 34,4133"
       style="fill:#ffffff;stroke:#ff0000;stroke-width:4"
       id="polyline349"
       transform="translate(1402.3669,-2172.773)" />
    <polyline
       points="86,4133 81,4139 81,4166 79,4166 79,4139 74,4133"
       style="fill:#ffffff;stroke:#ff0000;stroke-width:4"
       id="polyline351"
       transform="translate(1402.3669,-2172.773)" />
    <polyline
       points="126,4133 121,4139 121,4166 119,4166 119,4139 114,4133"
       style="fill:#ffffff;stroke:#ff0000;stroke-width:4"
       id="polyline353"
       transform="translate(1402.3669,-2172.773)" />
    <polyline
       points="166,4133 161,4139 161,4166 159,4166 159,4139 154,4133"
       style="fill:#ffffff;stroke:#ff0000;stroke-width:4"
       id="polyline355"
       transform="translate(1402.3669,-2172.773)" />
    <polyline
       points="206,4133 201,4139 201,4166 199,4166 199,4139 194,4133"
       style="fill:#ffffff;stroke:#ff0000;stroke-width:4"
       id="polyline357"
       transform="translate(1402.3669,-2172.773)" />
    <polyline
       points="246,4133 241,4139 241,4166 239,4166 239,4139 234,4133"
       style="fill:#ffffff;stroke:#ff0000;stroke-width:4"
       id="polyline359"
       transform="translate(1402.3669,-2172.773)" />
    <polyline
       points="286,4133 281,4139 281,4166 279,4166 279,4139 274,4133"
       style="fill:#ffffff;stroke:#ff0000;stroke-width:4"
       id="polyline361"
       transform="translate(1402.3669,-2172.773)" />
    <polyline
       points="46,4333 41,4339 41,4366 39,4366 39,4339 34,4333"
       style="fill:#ffffff;stroke:#ff0000;stroke-width:4"
       id="polyline363"
       transform="translate(1757.9406,-2956.6514)" />
    <polyline
       points="86,4333 81,4339 81,4366 79,4366 79,4339 74,4333"
       style="fill:#ffffff;stroke:#ff0000;stroke-width:4"
       id="polyline365"
       transform="translate(1757.9406,-2956.6514)" />
    <polyline
       points="126,4333 121,4339 121,4366 119,4366 119,4339 114,4333"
       style="fill:#ffffff;stroke:#ff0000;stroke-width:4"
       id="polyline367"
       transform="translate(1757.9406,-2956.6514)" />
    <polyline
       points="166,4333 161,4339 161,4366 159,4366 159,4339 154,4333"
       style="fill:#ffffff;stroke:#ff0000;stroke-width:4"
       id="polyline369"
       transform="translate(1757.9406,-2956.6514)" />
    <polyline
       points="206,4333 201,4339 201,4366 199,4366 199,4339 194,4333"
       style="fill:#ffffff;stroke:#ff0000;stroke-width:4"
       id="polyline371"
       transform="translate(1757.9406,-2956.6514)" />
    <polyline
       points="246,4333 241,4339 241,4366 239,4366 239,4339 234,4333"
       style="fill:#ffffff;stroke:#ff0000;stroke-width:4"
       id="polyline373"
       transform="translate(1757.9406,-2956.6514)" />
    <polyline
       points="286,4333 281,4339 281,4366 279,4366 279,4339 274,4333"
       style="fill:#ffffff;stroke:#ff0000;stroke-width:4"
       id="polyline375"
       transform="translate(1757.9406,-2956.6514)" />
    <polyline
       points="46,4533 41,4539 41,4566 39,4566 39,4539 34,4533"
       style="fill:#ffffff;stroke:#ff0000;stroke-width:4"
       id="polyline377"
       transform="translate(1752.2263,-2926.5383)" />
    <polyline
       points="86,4533 81,4539 81,4566 79,4566 79,4539 74,4533"
       style="fill:#ffffff;stroke:#ff0000;stroke-width:4"
       id="polyline379"
       transform="translate(1752.2263,-2926.5383)" />
    <polyline
       points="126,4533 121,4539 121,4566 119,4566 119,4539 114,4533"
       style="fill:#ffffff;stroke:#ff0000;stroke-width:4"
       id="polyline381"
       transform="translate(1752.2263,-2926.5383)" />
    <polyline
       points="166,4533 161,4539 161,4566 159,4566 159,4539 154,4533"
       style="fill:#ffffff;stroke:#ff0000;stroke-width:4"
       id="polyline383"
       transform="translate(1752.2263,-2926.5383)" />
    <polyline
       points="206,4533 201,4539 201,4566 199,4566 199,4539 194,4533"
       style="fill:#ffffff;stroke:#ff0000;stroke-width:4"
       id="polyline385"
       transform="translate(1752.2263,-2926.5383)" />
    <polyline
       points="246,4533 241,4539 241,4566 239,4566 239,4539 234,4533"
       style="fill:#ffffff;stroke:#ff0000;stroke-width:4"
       id="polyline387"
       transform="translate(1752.2263,-2926.5383)" />
    <polyline
       points="286,4533 281,4539 281,4566 279,4566 279,4539 274,4533"
       style="fill:#ffffff;stroke:#ff0000;stroke-width:4"
       id="polyline389"
       transform="translate(1752.2263,-2926.5383)" />
    <flowRoot
       xml:space="preserve"
       id="flowRoot3717"
       style="font-style:normal;font-variant:normal;font-weight:normal;font-stretch:normal;font-size:72px;line-height:125%;font-family:'Helvetica LT';-inkscape-font-specification:'Helvetica LT';letter-spacing:2px;word-spacing:0px;fill:#000000;fill-opacity:1;stroke:none;stroke-width:1px;stroke-linecap:butt;stroke-linejoin:miter;stroke-opacity:1"
       transform="translate(2384.5139,1768.1046)"><flowRegion
         id="flowRegion3719"><rect
           id="rect3721"
           width="141.42136"
           height="173.74623"
           x="-206.07112"
           y="26.04722" /></flowRegion><flowPara
         id="flowPara3723">1</flowPara></flowRoot>    <flowRoot
       transform="translate(113.57557,171.5088)"
       xml:space="preserve"
       id="flowRoot3717-2"
       style="font-style:normal;font-variant:normal;font-weight:normal;font-stretch:normal;font-size:72px;line-height:125%;font-family:'Helvetica LT';-inkscape-font-specification:'Helvetica LT';letter-spacing:2px;word-spacing:0px;fill:#000000;fill-opacity:1;stroke:none;stroke-width:1px;stroke-linecap:butt;stroke-linejoin:miter;stroke-opacity:1"><flowRegion
         id="flowRegion3719-5"><rect
           id="rect3721-5"
           width="141.42136"
           height="173.74623"
           x="-206.07112"
           y="26.04722" /></flowRegion><flowPara
         id="flowPara3723-9">2</flowPara></flowRoot>    <flowRoot
       xml:space="preserve"
       id="flowRoot3749"
       style="font-style:normal;font-variant:normal;font-weight:normal;font-stretch:normal;font-size:72px;line-height:125%;font-family:'Helvetica LT';-inkscape-font-specification:'Helvetica LT';letter-spacing:2px;word-spacing:0px;fill:#000000;fill-opacity:1;stroke:none;stroke-width:1px;stroke-linecap:butt;stroke-linejoin:miter;stroke-opacity:1"><flowRegion
         id="flowRegion3751"><rect
           id="rect3753"
           width="60.609154"
           height="72.73098"
           x="-149.50258"
           y="343.23511" /></flowRegion><flowPara
         id="flowPara3755">33</flowPara></flowRoot>    <flowRoot
       xml:space="preserve"
       id="flowRoot3757"
       style="fill:black;stroke:none;stroke-opacity:1;stroke-width:1px;stroke-linejoin:miter;stroke-linecap:butt;fill-opacity:1;font-family:Helvetica LT;font-style:normal;font-weight:normal;font-size:72px;line-height:125%;letter-spacing:2px;word-spacing:0px;-inkscape-font-specification:Helvetica LT;font-stretch:normal;font-variant:normal"><flowRegion
         id="flowRegion3759"><rect
           id="rect3761"
           width="76.771591"
           height="115.15739"
           x="-161.6244"
           y="359.39755" /></flowRegion><flowPara
         id="flowPara3763" /></flowRoot>    <flowRoot
       xml:space="preserve"
       id="flowRoot3765"
       style="font-style:normal;font-variant:normal;font-weight:normal;font-stretch:normal;font-size:72px;line-height:125%;font-family:'Helvetica LT';-inkscape-font-specification:'Helvetica LT';letter-spacing:2px;word-spacing:0px;fill:#000000;fill-opacity:1;stroke:none;stroke-width:1px;stroke-linecap:butt;stroke-linejoin:miter;stroke-opacity:1"
       transform="translate(176.60337,-62.13925)"><flowRegion
         id="flowRegion3767"><rect
           id="rect3769"
           width="169.70563"
           height="218.19295"
           x="-270.72089"
           y="401.82397" /></flowRegion><flowPara
         id="flowPara3771">3</flowPara></flowRoot>    <flowRoot
       xml:space="preserve"
       id="flowRoot3773"
       style="font-style:normal;font-variant:normal;font-weight:normal;font-stretch:normal;font-size:72px;line-height:125%;font-family:'Helvetica LT';-inkscape-font-specification:'Helvetica LT';letter-spacing:2px;word-spacing:0px;fill:#000000;fill-opacity:1;stroke:none;stroke-width:1px;stroke-linecap:butt;stroke-linejoin:miter;stroke-opacity:1"
       transform="translate(2.8571738,8.5714287)"><flowRegion
         id="flowRegion3775"><rect
           id="rect3777"
           width="68.690376"
           height="88.893425"
           x="-98.994949"
           y="466.47372" /></flowRegion><flowPara
         id="flowPara3779">4</flowPara></flowRoot>    <flowRoot
       xml:space="preserve"
       id="flowRoot3781"
       style="font-style:normal;font-variant:normal;font-weight:normal;font-stretch:normal;font-size:72px;line-height:125%;font-family:'Helvetica LT';-inkscape-font-specification:'Helvetica LT';letter-spacing:2px;word-spacing:0px;fill:#000000;fill-opacity:1;stroke:none;stroke-width:1px;stroke-linecap:butt;stroke-linejoin:miter;stroke-opacity:1"
       transform="translate(2.8571738,8.5714287)"><flowRegion
         id="flowRegion3783"><rect
           id="rect3785"
           width="72.73098"
           height="84.852814"
           x="-92.934036"
           y="613.95599" /></flowRegion><flowPara
         id="flowPara3787">5</flowPara></flowRoot>    <flowRoot
       xml:space="preserve"
       id="flowRoot3789"
       style="font-style:normal;font-variant:normal;font-weight:normal;font-stretch:normal;font-size:72px;line-height:125%;font-family:'Helvetica LT';-inkscape-font-specification:'Helvetica LT';letter-spacing:2px;word-spacing:0px;fill:#000000;fill-opacity:1;stroke:none;stroke-width:1px;stroke-linecap:butt;stroke-linejoin:miter;stroke-opacity:1"
       transform="translate(2.8571738,8.5714287)"><flowRegion
         id="flowRegion3791"><rect
           id="rect3793"
           width="76.771591"
           height="96.974648"
           x="-98.994949"
           y="741.23523" /></flowRegion><flowPara
         id="flowPara3795">6</flowPara></flowRoot>    <flowRoot
       xml:space="preserve"
       id="flowRoot3797"
       style="font-style:normal;font-variant:normal;font-weight:normal;font-stretch:normal;font-size:72px;line-height:125%;font-family:'Helvetica LT';-inkscape-font-specification:'Helvetica LT';letter-spacing:2px;word-spacing:0px;fill:#000000;fill-opacity:1;stroke:none;stroke-width:1px;stroke-linecap:butt;stroke-linejoin:miter;stroke-opacity:1"
       transform="translate(2.8571738,8.5714287)"><flowRegion
         id="flowRegion3799"><rect
           id="rect3801"
           width="68.690376"
           height="105.05586"
           x="-101.01525"
           y="892.75812" /></flowRegion><flowPara
         id="flowPara3803">7</flowPara></flowRoot>    <flowRoot
       xml:space="preserve"
       id="flowRoot3805"
       style="font-style:normal;font-variant:normal;font-weight:normal;font-stretch:normal;font-size:72px;line-height:125%;font-family:'Helvetica LT';-inkscape-font-specification:'Helvetica LT';letter-spacing:2px;word-spacing:0px;fill:#000000;fill-opacity:1;stroke:none;stroke-width:1px;stroke-linecap:butt;stroke-linejoin:miter;stroke-opacity:1"
       transform="translate(1387.1429,1927.1429)"><flowRegion
         id="flowRegion3807"><rect
           id="rect3809"
           width="86.873116"
           height="113.13708"
           x="785.89868"
           y="82.615761" /></flowRegion><flowPara
         id="flowPara3811">8</flowPara></flowRoot>    <flowRoot
       xml:space="preserve"
       id="flowRoot3813"
       style="font-style:normal;font-variant:normal;font-weight:normal;font-stretch:normal;font-size:72px;line-height:125%;font-family:'Helvetica LT';-inkscape-font-specification:'Helvetica LT';letter-spacing:2px;word-spacing:0px;fill:#000000;fill-opacity:1;stroke:none;stroke-width:1px;stroke-linecap:butt;stroke-linejoin:miter;stroke-opacity:1"
       transform="translate(2.8571738,8.5714287)"><flowRegion
         id="flowRegion3815"><rect
           id="rect3817"
           width="76.771591"
           height="101.01525"
           x="785.89868"
           y="236.15895" /></flowRegion><flowPara
         id="flowPara3819">9</flowPara></flowRoot>    <flowRoot
       xml:space="preserve"
       id="flowRoot3821"
       style="font-style:normal;font-variant:normal;font-weight:normal;font-stretch:normal;font-size:72px;line-height:125%;font-family:'Helvetica LT';-inkscape-font-specification:'Helvetica LT';letter-spacing:2px;word-spacing:0px;fill:#000000;fill-opacity:1;stroke:none;stroke-width:1px;stroke-linecap:butt;stroke-linejoin:miter;stroke-opacity:1"
       transform="translate(2.8571738,8.5714287)"><flowRegion
         id="flowRegion3823"><rect
           id="rect3825"
           width="133.34013"
           height="129.29953"
           x="779.83777"
           y="407.88489" /></flowRegion><flowPara
         id="flowPara3827">10</flowPara></flowRoot>    <flowRoot
       xml:space="preserve"
       id="flowRoot3829"
       style="font-style:normal;font-variant:normal;font-weight:normal;font-stretch:normal;font-size:72px;line-height:125%;font-family:'Helvetica LT';-inkscape-font-specification:'Helvetica LT';letter-spacing:2px;word-spacing:0px;fill:#000000;fill-opacity:1;stroke:none;stroke-width:1px;stroke-linecap:butt;stroke-linejoin:miter;stroke-opacity:1"
       transform="translate(2.8571738,8.5714287)"><flowRegion
         id="flowRegion3831"><rect
           id="rect3833"
           width="127.27922"
           height="115.15739"
           x="789.93927"
           y="615.97632" /></flowRegion><flowPara
         id="flowPara3835">11</flowPara></flowRoot>    <flowRoot
       xml:space="preserve"
       id="flowRoot3837"
       style="font-style:normal;font-variant:normal;font-weight:normal;font-stretch:normal;font-size:72px;line-height:125%;font-family:'Helvetica LT';-inkscape-font-specification:'Helvetica LT';letter-spacing:2px;word-spacing:0px;fill:#000000;fill-opacity:1;stroke:none;stroke-width:1px;stroke-linecap:butt;stroke-linejoin:miter;stroke-opacity:1"
       transform="translate(2.8571738,8.5714287)"><flowRegion
         id="flowRegion3839"><rect
           id="rect3841"
           width="181.82745"
           height="129.29953"
           x="802.0611"
           y="840.23016" /></flowRegion><flowPara
         id="flowPara3843">12</flowPara></flowRoot>    <flowRoot
       xml:space="preserve"
       id="flowRoot3845"
       style="font-style:normal;font-variant:normal;font-weight:normal;font-stretch:normal;font-size:72px;line-height:125%;font-family:'Helvetica LT';-inkscape-font-specification:'Helvetica LT';letter-spacing:2px;word-spacing:0px;fill:#000000;fill-opacity:1;stroke:none;stroke-width:1px;stroke-linecap:butt;stroke-linejoin:miter;stroke-opacity:1"
       transform="translate(-41.230226,1252.1831)"><flowRegion
         id="flowRegion3847"><rect
           id="rect3849"
           width="157.14285"
           height="154.28572"
           x="-174.28572"
           y="83.790779" /></flowRegion><flowPara
         id="flowPara3851">13</flowPara></flowRoot>    <flowRoot
       xml:space="preserve"
       id="flowRoot3853"
       style="font-style:normal;font-variant:normal;font-weight:normal;font-stretch:normal;font-size:72px;line-height:125%;font-family:'Helvetica LT';-inkscape-font-specification:'Helvetica LT';letter-spacing:2px;word-spacing:0px;fill:#000000;fill-opacity:1;stroke:none;stroke-width:1px;stroke-linecap:butt;stroke-linejoin:miter;stroke-opacity:1"
       transform="translate(-41.230226,1252.1831)"><flowRegion
         id="flowRegion3855"><rect
           id="rect3857"
           width="165.71428"
           height="145.71428"
           x="-168.57143"
           y="312.36221" /></flowRegion><flowPara
         id="flowPara3859">14</flowPara></flowRoot>    <flowRoot
       xml:space="preserve"
       id="flowRoot3861"
       style="font-style:normal;font-variant:normal;font-weight:normal;font-stretch:normal;font-size:72px;line-height:125%;font-family:'Helvetica LT';-inkscape-font-specification:'Helvetica LT';letter-spacing:2px;word-spacing:0px;fill:#000000;fill-opacity:1;stroke:none;stroke-width:1px;stroke-linecap:butt;stroke-linejoin:miter;stroke-opacity:1"
       transform="translate(-41.230226,1252.1831)"><flowRegion
         id="flowRegion3863"><rect
           id="rect3865"
           width="171.42857"
           height="162.85715"
           x="-197.14285"
           y="543.79077" /></flowRegion><flowPara
         id="flowPara3867">15</flowPara></flowRoot>    <flowRoot
       xml:space="preserve"
       id="flowRoot3869"
       style="font-style:normal;font-variant:normal;font-weight:normal;font-stretch:normal;font-size:72px;line-height:125%;font-family:'Helvetica LT';-inkscape-font-specification:'Helvetica LT';letter-spacing:2px;word-spacing:0px;fill:#000000;fill-opacity:1;stroke:none;stroke-width:1px;stroke-linecap:butt;stroke-linejoin:miter;stroke-opacity:1"
       transform="translate(-41.230226,1252.1831)"><flowRegion
         id="flowRegion3871"><rect
           id="rect3873"
           width="191.42857"
           height="131.42857"
           x="-194.28572"
           y="798.07648" /></flowRegion><flowPara
         id="flowPara3875">16</flowPara></flowRoot>    <flowRoot
       xml:space="preserve"
       id="flowRoot3877"
       style="font-style:normal;font-variant:normal;font-weight:normal;font-stretch:normal;font-size:72px;line-height:125%;font-family:'Helvetica LT';-inkscape-font-specification:'Helvetica LT';letter-spacing:2px;word-spacing:0px;fill:#000000;fill-opacity:1;stroke:none;stroke-width:1px;stroke-linecap:butt;stroke-linejoin:miter;stroke-opacity:1"
       transform="translate(-41.230226,1252.1831)"><flowRegion
         id="flowRegion3879"><rect
           id="rect3881"
           width="257.14285"
           height="160"
           x="777.14288"
           y="120.93363" /></flowRegion><flowPara
         id="flowPara3883">17</flowPara></flowRoot>    <flowRoot
       xml:space="preserve"
       id="flowRoot3885"
       style="font-style:normal;font-variant:normal;font-weight:normal;font-stretch:normal;font-size:72px;line-height:125%;font-family:'Helvetica LT';-inkscape-font-specification:'Helvetica LT';letter-spacing:2px;word-spacing:0px;fill:#000000;fill-opacity:1;stroke:none;stroke-width:1px;stroke-linecap:butt;stroke-linejoin:miter;stroke-opacity:1"
       transform="translate(-41.230226,1252.1831)"><flowRegion
         id="flowRegion3887"><rect
           id="rect3889"
           width="257.14285"
           height="165.71428"
           x="797.14288"
           y="386.64792" /></flowRegion><flowPara
         id="flowPara3891">18</flowPara></flowRoot>    <flowRoot
       xml:space="preserve"
       id="flowRoot3893"
       style="font-style:normal;font-variant:normal;font-weight:normal;font-stretch:normal;font-size:72px;line-height:125%;font-family:'Helvetica LT';-inkscape-font-specification:'Helvetica LT';letter-spacing:2px;word-spacing:0px;fill:#000000;fill-opacity:1;stroke:none;stroke-width:1px;stroke-linecap:butt;stroke-linejoin:miter;stroke-opacity:1"
       transform="translate(-41.230226,1252.1831)"><flowRegion
         id="flowRegion3895"><rect
           id="rect3897"
           width="197.14285"
           height="137.14285"
           x="800"
           y="635.21936" /></flowRegion><flowPara
         id="flowPara3899">19</flowPara></flowRoot>    <flowRoot
       xml:space="preserve"
       id="flowRoot3901"
       style="font-style:normal;font-variant:normal;font-weight:normal;font-stretch:normal;font-size:72px;line-height:125%;font-family:'Helvetica LT';-inkscape-font-specification:'Helvetica LT';letter-spacing:2px;word-spacing:0px;fill:#000000;fill-opacity:1;stroke:none;stroke-width:1px;stroke-linecap:butt;stroke-linejoin:miter;stroke-opacity:1"
       transform="translate(1365.7143,1214.2857)"><flowRegion
         id="flowRegion3903"><rect
           id="rect3905"
           width="185.86807"
           height="169.70563"
           x="-193.9493"
           y="183.63101" /></flowRegion><flowPara
         id="flowPara3907">20</flowPara></flowRoot>    <flowRoot
       xml:space="preserve"
       id="flowRoot3909"
       style="font-style:normal;font-variant:normal;font-weight:normal;font-stretch:normal;font-size:72px;line-height:125%;font-family:'Helvetica LT';-inkscape-font-specification:'Helvetica LT';letter-spacing:2px;word-spacing:0px;fill:#000000;fill-opacity:1;stroke:none;stroke-width:1px;stroke-linecap:butt;stroke-linejoin:miter;stroke-opacity:1"
       transform="translate(1365.7143,1214.2857)"><flowRegion
         id="flowRegion3911"><rect
           id="rect3913"
           width="181.82745"
           height="173.74623"
           x="-226.27417"
           y="458.39252" /></flowRegion><flowPara
         id="flowPara3915">21</flowPara></flowRoot>    <flowRoot
       xml:space="preserve"
       id="flowRoot3917"
       style="font-style:normal;font-variant:normal;font-weight:normal;font-stretch:normal;font-size:72px;line-height:125%;font-family:'Helvetica LT';-inkscape-font-specification:'Helvetica LT';letter-spacing:2px;word-spacing:0px;fill:#000000;fill-opacity:1;stroke:none;stroke-width:1px;stroke-linecap:butt;stroke-linejoin:miter;stroke-opacity:1"
       transform="translate(1365.7143,1214.2857)"><flowRegion
         id="flowRegion3919"><rect
           id="rect3921"
           width="157.5838"
           height="141.42136"
           x="-202.0305"
           y="777.60071" /></flowRegion><flowPara
         id="flowPara3923">22</flowPara></flowRoot>    <flowRoot
       xml:space="preserve"
       id="flowRoot3925"
       style="font-style:normal;font-variant:normal;font-weight:normal;font-stretch:normal;font-size:72px;line-height:125%;font-family:'Helvetica LT';-inkscape-font-specification:'Helvetica LT';letter-spacing:2px;word-spacing:0px;fill:#000000;fill-opacity:1;stroke:none;stroke-width:1px;stroke-linecap:butt;stroke-linejoin:miter;stroke-opacity:1"
       transform="translate(1365.7143,1214.2857)"><flowRegion
         id="flowRegion3927"><rect
           id="rect3929"
           width="226.27417"
           height="153.54318"
           x="796.00018"
           y="175.54979" /></flowRegion><flowPara
         id="flowPara3931">23</flowPara></flowRoot>    <flowRoot
       xml:space="preserve"
       id="flowRoot3933"
       style="font-style:normal;font-variant:normal;font-weight:normal;font-stretch:normal;font-size:72px;line-height:125%;font-family:'Helvetica LT';-inkscape-font-specification:'Helvetica LT';letter-spacing:2px;word-spacing:0px;fill:#000000;fill-opacity:1;stroke:none;stroke-width:1px;stroke-linecap:butt;stroke-linejoin:miter;stroke-opacity:1"
       transform="translate(1360,1062.5714)"><flowRegion
         id="flowRegion3935"><rect
           id="rect3937"
           width="258.59906"
           height="189.90868"
           x="796.00018"
           y="519.00165" /></flowRegion><flowPara
         id="flowPara3939">24</flowPara></flowRoot>    <flowRoot
       xml:space="preserve"
       id="flowRoot4528"
       style="font-style:normal;font-variant:normal;font-weight:normal;font-stretch:normal;font-size:72px;line-height:125%;font-family:'Helvetica LT';-inkscape-font-specification:'Helvetica LT';letter-spacing:2px;word-spacing:0px;fill:#000000;fill-opacity:1;stroke:none;stroke-width:1px;stroke-linecap:butt;stroke-linejoin:miter;stroke-opacity:1"
       transform="translate(1445.7143,40)"><flowRegion
         id="flowRegion4530"><rect
           id="rect4532"
           width="311.12698"
           height="165.66502"
           x="-1260.6704"
           y="-83.049255" /></flowRegion><flowPara
         id="flowPara4534">A</flowPara></flowRoot>    <flowRoot
       xml:space="preserve"
       id="flowRoot4536"
       style="font-style:normal;font-variant:normal;font-weight:normal;font-stretch:normal;font-size:72px;line-height:125%;font-family:'Helvetica LT';-inkscape-font-specification:'Helvetica LT';letter-spacing:2px;word-spacing:0px;fill:#000000;fill-opacity:1;stroke:none;stroke-width:1px;stroke-linecap:butt;stroke-linejoin:miter;stroke-opacity:1"
       transform="translate(1445.7143,40)"><flowRegion
         id="flowRegion4538"><rect
           id="rect4540"
           width="420.22345"
           height="141.42136"
           x="-1268.7516"
           y="1108.9308" /></flowRegion><flowPara
         id="flowPara4542">B</flowPara></flowRoot>    <flowRoot
       xml:space="preserve"
       id="flowRoot4544"
       style="font-style:normal;font-variant:normal;font-weight:normal;font-stretch:normal;font-size:72px;line-height:125%;font-family:'Helvetica LT';-inkscape-font-specification:'Helvetica LT';letter-spacing:2px;word-spacing:0px;fill:#000000;fill-opacity:1;stroke:none;stroke-width:1px;stroke-linecap:butt;stroke-linejoin:miter;stroke-opacity:1"
       transform="translate(1365.7143,1214.2857)"><flowRegion
         id="flowRegion4546"><rect
           id="rect4548"
           width="238.396"
           height="109.09647"
           x="173.74623"
           y="17.966" /></flowRegion><flowPara
         id="flowPara4550">C</flowPara></flowRoot>  </g>
</svg>
