<?xml version="1.0" encoding="UTF-8" standalone="no"?>
<!-- Created with Inkscape (http://www.inkscape.org/) -->

<svg
   xmlns:dc="http://purl.org/dc/elements/1.1/"
   xmlns:cc="http://creativecommons.org/ns#"
   xmlns:rdf="http://www.w3.org/1999/02/22-rdf-syntax-ns#"
   xmlns:svg="http://www.w3.org/2000/svg"
   xmlns="http://www.w3.org/2000/svg"
   xmlns:sodipodi="http://sodipodi.sourceforge.net/DTD/sodipodi-0.dtd"
   xmlns:inkscape="http://www.inkscape.org/namespaces/inkscape"
   width="210mm"
   height="297mm"
   viewBox="0 0 744.09448819 1052.3622047"
   id="svg3371"
   version="1.1"
   inkscape:version="0.91 r"
   sodipodi:docname="locators2.svg">
  <defs
     id="defs3373" />
  <sodipodi:namedview
     id="base"
     pagecolor="#ffffff"
     bordercolor="#666666"
     borderopacity="1.0"
     inkscape:pageopacity="0.0"
     inkscape:pageshadow="2"
     inkscape:zoom="0.35"
     inkscape:cx="375"
     inkscape:cy="520"
     inkscape:document-units="px"
     inkscape:current-layer="layer1"
     showgrid="false"
     inkscape:window-width="1920"
     inkscape:window-height="1031"
     inkscape:window-x="0"
     inkscape:window-y="0"
     inkscape:window-maximized="1" />
  <metadata
     id="metadata3376">
    <rdf:RDF>
      <cc:Work
         rdf:about="">
        <dc:format>image/svg+xml</dc:format>
        <dc:type
           rdf:resource="http://purl.org/dc/dcmitype/StillImage" />
        <dc:title></dc:title>
      </cc:Work>
    </rdf:RDF>
  </metadata>
  <g
     inkscape:label="Layer 1"
     inkscape:groupmode="layer"
     id="layer1">
    <path
       inkscape:connector-curvature="0"
       style="fill:#008000"
       d="m 25.217201,875.6217 c -1.68904,0 -3.04908,1.35948 -3.04908,3.04853 l 0,24.95118 c 0,1.68904 1.36004,3.04908 3.04908,3.04908 l 28.41257,0 c -5.89261,6.18483 -10.12241,14.61383 -11.26419,25.34612 l 0,5.26405 c 0,0.2197 0.0762,2.19351 0.18374,3.18073 1.53675,12.28025 11.22678,25.33167 18.46368,37.61192 7.78587,13.15704 15.86477,26.09969 23.86891,39.03699 4.9355,-8.4426 9.8532,-16.9965 14.67628,-25.2206 1.314469,-2.41355 2.840099,-4.82578 4.155999,-7.12947 0.87708,-1.53388 2.55303,-3.06773 3.31854,-4.49492 7.78558,-14.2544 20.31733,-28.61879 20.31733,-42.76506 l 0,-5.81135 c 2.9e-4,-1.5336 -1.90072,-6.90689 -2.0077,-7.23759 -0.43911,-1.64574 -1.33122,-3.39934 -1.99089,-4.93466 -2.13917,-5.14094 -4.96608,-9.38607 -8.22688,-12.84616 l 26.09621,0 c 1.68904,0 3.04852,-1.36004 3.04852,-3.04908 l 0,-24.95118 c 0,-1.68905 -1.35948,-3.04853 -3.04852,-3.04853 l -116.003599,0 z m 59.67087,42.22728 c 9.98034,0 17.699029,7.98477 17.699029,17.96512 0,9.98001 -8.256469,17.96232 -18.236809,17.96232 -6.23428,0 -13.05807,-3.11737 -16.42629,-11.72635 -0.50182,-1.37039 -0.46159,-4.11675 -0.46159,-4.36832 l 0,-3.86695 c 0,-10.97485 9.31884,-15.96582 17.42566,-15.96582 z"
       id="path3414" />
    <path
       inkscape:connector-curvature="0"
       style="font-style:normal;font-variant:normal;font-weight:bold;font-stretch:normal;font-size:45px;line-height:125%;font-family:'Fira Sans';-inkscape-font-specification:'Fira Sans Bold';letter-spacing:2px;word-spacing:0px;fill:#ffffff;fill-opacity:1;stroke:none;stroke-width:1px;stroke-linecap:butt;stroke-linejoin:miter;stroke-opacity:1"
       d="m 130.52575,877.80698 -1.39598,1.59204 3.47707,3.15833 2.35109,0 3.45242,-3.15833 -1.37133,-1.59204 -3.25692,2.057 -3.25635,-2.057 z m -45.017549,5.73013 c -1.46921,0 -2.78299,0.3512 -3.94202,1.05315 -1.14272,0.68562 -2.04872,1.69759 -2.71802,3.0362 -0.65298,1.3386 -0.97976,2.93035 -0.97976,4.77501 0,1.89364 0.31846,3.51756 0.95511,4.87249 0.65298,1.3386 1.55898,2.35057 2.71802,3.0362 1.15903,0.68562 2.5222,1.02849 4.08934,1.02849 1.09374,0 2.09739,-0.2036 3.01156,-0.61172 0.91417,-0.42443 1.68147,-0.94706 2.3018,-1.56739 l -1.8122,-2.35054 c -0.604,0.45709 -1.15881,0.80772 -1.66487,1.05259 -0.48973,0.24487 -1.03678,0.36748 -1.64078,0.36748 -1.17536,0 -2.09745,-0.47325 -2.76675,-1.42007 -0.65298,-0.96314 -0.97977,-2.43227 -0.97977,-4.40753 0,-1.99158 0.32679,-3.46904 0.97977,-4.43218 0.6693,-0.97947 1.56698,-1.46937 2.69336,-1.46937 1.07742,0 2.08995,0.40835 3.03676,1.22457 l 1.95841,-2.32645 c -0.7346,-0.62033 -1.51799,-1.08581 -2.35053,-1.39598 -0.81622,-0.31016 -1.77937,-0.46495 -2.88943,-0.46495 z m -16.11764,0.1843 0,3.35999 c 0.26549,0.20979 0.49844,0.47035 0.69463,0.78986 0.57136,0.93049 0.85708,2.44845 0.85708,4.5543 0,2.10585 -0.28572,3.63213 -0.85708,4.57895 -0.19321,0.32391 -0.42624,0.58822 -0.69463,0.79938 l 0,3.33982 c 0.80132,-0.17163 1.5326,-0.45464 2.18864,-0.85764 1.15904,-0.71828 2.04063,-1.74689 2.64464,-3.0855 0.62032,-1.3386 0.93046,-2.93035 0.93046,-4.77501 0,-2.82413 -0.67742,-5.01118 -2.03235,-6.56201 -0.96384,-1.11664 -2.20897,-1.82952 -3.73139,-2.14214 z m 50.704549,0.0291 0,3.45017 c 0.20725,0.18813 0.39385,0.40878 0.55459,0.67055 0.57135,0.93049 0.85708,2.44845 0.85708,4.5543 0,2.10585 -0.28573,3.63213 -0.85708,4.57895 -0.15853,0.26577 -0.34545,0.48908 -0.55459,0.67894 l 0,3.42945 c 0.74635,-0.17434 1.43044,-0.44745 2.04804,-0.82683 1.15904,-0.71828 2.04063,-1.74689 2.64463,-3.0855 0.62033,-1.3386 0.93047,-2.93035 0.93047,-4.77501 0,-2.82413 -0.67742,-5.01118 -2.03235,-6.56201 -0.93425,-1.08235 -2.13173,-1.78606 -3.59079,-2.11301 z m -4.09719,0.0213 c -0.74059,0.17859 -1.41937,0.45687 -2.0329,0.84252 -1.14272,0.70195 -2.02431,1.72225 -2.64464,3.06085 -0.604,1.3386 -0.90638,2.92203 -0.90638,4.75036 0,1.87731 0.30238,3.48571 0.90638,4.82431 0.62033,1.32229 1.50192,2.33426 2.64464,3.03621 0.61355,0.37689 1.29228,0.64894 2.0329,0.82347 l 0,-3.47931 c -0.19123,-0.18426 -0.36359,-0.39923 -0.51481,-0.64981 -0.57135,-0.94682 -0.85708,-2.46534 -0.85708,-4.55487 0,-2.08953 0.2774,-3.59916 0.83244,-4.52965 0.15695,-0.2601 0.33815,-0.48133 0.53945,-0.66998 l 0,-3.4541 z m -50.705109,0.0319 c -0.68643,0.17957 -1.31743,0.44924 -1.8923,0.81059 -1.14271,0.70195 -2.0243,1.72225 -2.64463,3.06085 -0.60401,1.3386 -0.90582,2.92203 -0.90582,4.75036 0,1.87731 0.30181,3.48571 0.90582,4.82431 0.62033,1.32229 1.50192,2.33426 2.64463,3.03621 0.57488,0.35314 1.20587,0.61662 1.8923,0.7921 l 0,-3.59863 c -0.13476,-0.1498 -0.26162,-0.31256 -0.3742,-0.49912 -0.57136,-0.94682 -0.85708,-2.46534 -0.85708,-4.55487 0,-2.08953 0.2774,-3.59916 0.83243,-4.52965 0.11911,-0.19738 0.25421,-0.36978 0.39885,-0.52601 l 0,-3.56614 z m -38.01805,0.14957 0,16.96912 4.01597,0 0,-7.27232 5.0932,0 0,7.27232 4.0154,0 0,-16.96912 -4.0154,0 0,6.56257 -5.0932,0 0,-6.56257 -4.01597,0 z m 17.39654,0 0,16.96912 4.01596,0 0,-6.48862 0.11372,0 0,-2.76731 -0.11372,0 0,-4.89714 0.11372,0 0,-2.81605 -4.12968,0 z m 49.12987,0 0,16.96912 4.0154,0 0,-7.27232 5.093199,0 0,7.27232 4.01596,0 0,-16.96912 -4.01596,0 0,6.56257 -5.093199,0 0,-6.56257 -4.0154,0 z m 33.565699,0 0,3.0855 4.38289,0 0,13.88362 4.01596,0 0,-13.88362 4.18738,0 0.39157,-3.0855 -12.9778,0 z m -74.468139,0.242 0,3.90001 c 0.11364,0.2909 0.17141,0.6314 0.17141,1.02458 0,0.44075 -0.0571,0.82261 -0.17141,1.14501 l 0,9.103 0.83299,1.55452 4.52965,0 -4.3095,-7.22359 c 1.12639,-0.50605 1.95084,-1.11801 2.47322,-1.83628 0.52238,-0.7346 0.7837,-1.64893 0.7837,-2.74266 0,-1.74672 -0.5881,-3.04442 -1.76346,-3.89329 -0.65924,-0.48282 -1.5124,-0.8231 -2.5466,-1.0313 z"
       id="path3522" />
    <g
       id="g3627"
       transform="matrix(0.28681453,0,0,0.28681453,117.34955,799.61368)">
      <path
         inkscape:connector-curvature="0"
         id="path3414-0"
         d="m 194.25763,266.97136 c -5.88896,0 -10.6289,4.7419 -10.6289,10.63086 l 0,86.99414 c 0,5.88897 4.73994,10.63086 10.6289,10.63086 l 99.06253,0 c -20.5451,21.56387 -35.2925,50.95218 -39.2735,88.3711 l 0,18.35351 c 0,0.766 0.2657,7.64784 0.6407,11.08984 5.358,42.816 39.143,88.32072 64.375,131.13672 27.146,45.873 55.3137,90.99847 83.2207,136.10547 17.208,-29.436 34.3539,-59.25959 51.1699,-87.93359 4.583,-8.415 9.9022,-16.82542 14.4902,-24.85742 3.058,-5.348 8.9013,-10.69588 11.5703,-15.67188 27.145,-49.699 70.8379,-99.78151 70.8379,-149.10351 l 0,-20.26172 c 10e-4,-5.347 -6.627,-24.08138 -7,-25.23438 -1.531,-5.738 -4.6414,-11.85208 -6.9414,-17.20508 -7.458,-17.92343 -17.3133,-32.72552 -28.6816,-44.78906 l 90.9843,0 c 5.889,0 10.629,-4.74189 10.629,-10.63086 l 0,-86.99414 c 0,-5.88896 -4.74,-10.63086 -10.629,-10.63086 l -404.45503,0 z m 208.04683,147.23047 c 34.7972,0 61.709,27.83952 61.709,62.63672 0,34.79605 -28.7868,62.62695 -63.584,62.62695 -21.7363,0 -45.5279,-10.86894 -57.2714,-40.88476 -1.7497,-4.77796 -1.6094,-14.35337 -1.6094,-15.23047 l 0,-13.48242 c 0,-38.26463 32.4907,-55.66602 60.7558,-55.66602 z"
         style="fill:#008000" />
      <path
         inkscape:connector-curvature="0"
         id="path3559"
         d="m 369.39236,283.84636 -0.8808,21.62891 7.9277,0.7832 4.5996,-21.04297 -11.6465,-1.36914 z m -75.8711,0.51953 c -3.1744,0.70385 -6.0735,1.85652 -8.6757,3.49219 -4.5673,2.80563 -8.089,6.8841 -10.5684,12.23438 -2.4141,5.35027 -3.623,11.67863 -3.623,18.98632 0,7.50344 1.2089,13.93098 3.623,19.28125 2.4794,5.28503 6.0011,9.33109 10.5684,12.13672 2.6022,1.59852 5.5013,2.72475 8.6757,3.41211 l 0,-13.52539 c -0.99,-0.83235 -1.8613,-1.86319 -2.6074,-3.09961 -2.2836,-3.78434 -3.4258,-9.85343 -3.4258,-18.20508 0,-8.35164 1.1098,-14.38638 3.3282,-18.10546 0.768,-1.27278 1.6712,-2.32728 2.705,-3.17188 l 0,-13.43555 z m 15.9082,0.0566 0,13.82813 c 0.798,0.73788 1.5117,1.61012 2.1348,2.625 2.2837,3.71909 3.4258,9.78623 3.4258,18.20312 0,8.4169 -1.1421,14.5184 -3.4258,18.30274 -0.6151,1.03124 -1.3291,1.91492 -2.1348,2.66015 l 0,13.74219 c 2.9516,-0.69747 5.6592,-1.78436 8.1055,-3.28711 4.6326,-2.87088 8.1562,-6.98175 10.5703,-12.33203 2.4794,-5.35027 3.7188,-11.713 3.7188,-19.08594 0,-11.28777 -2.7075,-20.03002 -8.1231,-26.22851 -3.717,-4.30633 -8.4761,-7.11286 -14.2715,-8.42774 z m -98.67769,0.79297 0,67.82422 16.05269,0 0,-22.60742 0.4239,0 0,-11.54883 -0.4239,0 0,-22.2168 0.4239,0 0,-11.45117 -16.47659,0 z m 135.05269,0 0,67.82422 40.8125,0 1.6641,-12.72266 -26.4258,0 0,-55.10156 -16.0508,0 z m 67.4454,0 -20.4551,67.82422 16.6387,0 3.4238,-14.58203 3.3965,0 0,-11.64648 -0.6543,0 7.1445,-29.94922 7.1445,29.94922 -0.8808,0 0,11.64648 3.6211,0 3.5234,14.58203 17.0293,0 -20.4551,-67.82422 -19.4765,0 z m 49.2578,0 0,67.82422 14.289,0 0,-24.85742 c 0,-5.41552 -0.1964,-10.08126 -0.5879,-13.99609 -0.3262,-3.98009 -0.8162,-8.5486 -1.4687,-13.70313 l 19.5742,52.55664 20.4551,0 0,-67.82422 -14.3867,0 0,27.4043 c 0,7.89492 0.7188,16.31113 2.1543,25.25 l -20.0645,-52.6543 -19.9648,0 z m 81.9707,0 -20.4551,67.82422 16.6387,0 3.4257,-14.58203 3.4883,0 0,-11.64648 -0.748,0 7.1445,-29.94922 7.1445,29.94922 -0.7871,0 0,11.64648 3.5274,0 3.5234,14.58203 17.0293,0 -20.4551,-67.82422 -19.4765,0 z m -301.3399,1.04297 0,15.25391 c 0.8489,1.56408 1.2813,3.4997 1.2813,5.82226 0,2.66385 -0.4321,4.84013 -1.2813,6.54492 l 0,15.6211 c 4.0905,-0.92402 7.5879,-2.53401 10.4825,-4.8418 4.8935,-3.91483 7.3398,-9.69029 7.3398,-17.32422 0,-7.30769 -2.4787,-12.81997 -7.4375,-16.53906 -2.8179,-2.11345 -6.2812,-3.62427 -10.3848,-4.53711 z"
         style="font-style:normal;font-variant:normal;font-weight:bold;font-stretch:normal;font-size:85.37456512px;line-height:125%;font-family:'Fira Sans';-inkscape-font-specification:'Fira Sans Bold';letter-spacing:3.79442525px;word-spacing:0px;fill:#ffffff;fill-opacity:1;stroke:none;stroke-width:1px;stroke-linecap:butt;stroke-linejoin:miter;stroke-opacity:1" />
    </g>
  </g>
</svg>
