<?xml version="1.0" encoding="UTF-8" standalone="no"?>
<!-- Created with Inkscape (http://www.inkscape.org/) -->

<svg
   xmlns:dc="http://purl.org/dc/elements/1.1/"
   xmlns:cc="http://creativecommons.org/ns#"
   xmlns:rdf="http://www.w3.org/1999/02/22-rdf-syntax-ns#"
   xmlns:svg="http://www.w3.org/2000/svg"
   xmlns="http://www.w3.org/2000/svg"
   xmlns:sodipodi="http://sodipodi.sourceforge.net/DTD/sodipodi-0.dtd"
   xmlns:inkscape="http://www.inkscape.org/namespaces/inkscape"
   width="210mm"
   height="297mm"
   viewBox="0 0 744.09448819 1052.3622047"
   id="svg3941"
   version="1.1"
   inkscape:version="0.91 r"
   sodipodi:docname="v2-part-b.svg">
  <defs
     id="defs3943" />
  <sodipodi:namedview
     id="base"
     pagecolor="#ffffff"
     bordercolor="#666666"
     borderopacity="1.0"
     inkscape:pageopacity="0.0"
     inkscape:pageshadow="2"
     inkscape:zoom="0.69999999"
     inkscape:cx="321.37801"
     inkscape:cy="305.15244"
     inkscape:document-units="px"
     inkscape:current-layer="layer1"
     showgrid="false"
     inkscape:window-width="960"
     inkscape:window-height="1031"
     inkscape:window-x="958"
     inkscape:window-y="0"
     inkscape:window-maximized="0" />
  <metadata
     id="metadata3946">
    <rdf:RDF>
      <cc:Work
         rdf:about="">
        <dc:format>image/svg+xml</dc:format>
        <dc:type
           rdf:resource="http://purl.org/dc/dcmitype/StillImage" />
        <dc:title></dc:title>
      </cc:Work>
    </rdf:RDF>
  </metadata>
  <g
     inkscape:label="Layer 1"
     inkscape:groupmode="layer"
     id="layer1">
    <polyline
       points="0,2334 0,2457 0,2457 4,2456 8,2454 12,2455 16,2453 20,2450 24,2457 28,2461 32,2464 36,2466 40,2471 44,2474 48,2480 52,2483 56,2484 60,2481 64,2472 68,2465 72,2471 76,2479 80,2493 84,2499 88,2511 92,2515 96,2515 100,2510 104,2504 108,2505 112,2512 116,2515 120,2523 124,2521 128,2514 132,2511 136,2506 140,2503 144,2500 148,2490 152,2487 156,2479 160,2472 164,2462 168,2462 172,2468 176,2469 180,2473 184,2478 188,2484 192,2486 196,2489 200,2493 204,2500 208,2502 212,2516 216,2522 220,2531 224,2539 228,2558 232,2564 236,2568 240,2568 244,2568 248,2565 252,2561 256,2560 260,2556 264,2554 268,2545 272,2541 276,2529 280,2524 284,2516 288,2512 292,2501 296,2495 300,2495 304,2501 308,2514 312,2517 316,2520 316,2334 0,2334"
       style="fill:#ffffff;stroke:#ff0000;stroke-width:4"
       id="polyline31"
       transform="translate(30.388778,-2207.8577)" />
    <polyline
       points="0,2534 0,2666 0,2666 4,2671 8,2673 12,2674 16,2674 20,2675 24,2665 28,2664 32,2678 36,2681 40,2691 44,2693 48,2698 52,2702 56,2708 60,2708 64,2701 68,2693 72,2696 76,2699 80,2691 84,2689 88,2693 92,2697 96,2695 100,2695 104,2695 108,2697 112,2708 116,2710 120,2710 124,2706 128,2700 132,2700 136,2695 140,2693 144,2688 148,2683 152,2683 156,2675 160,2672 164,2667 168,2665 172,2674 176,2679 180,2682 184,2685 188,2693 192,2694 196,2696 200,2698 204,2707 208,2711 212,2719 216,2719 220,2720 224,2722 228,2732 232,2739 236,2756 240,2764 244,2767 248,2764 252,2755 256,2750 260,2738 264,2731 268,2716 272,2709 276,2707 280,2710 284,2713 288,2721 292,2726 296,2724 300,2728 304,2732 308,2722 312,2715 316,2704 316,2534 0,2534"
       style="fill:#ffffff;stroke:#ff0000;stroke-width:4"
       id="polyline33"
       transform="translate(33.245978,-2170.1434)" />
    <polyline
       points="0,2734 0,2861 0,2861 4,2868 8,2881 12,2881 16,2884 20,2886 24,2890 28,2891 32,2894 36,2894 40,2886 44,2885 48,2900 52,2907 56,2916 60,2920 64,2925 68,2926 72,2934 76,2937 80,2941 84,2943 88,2942 92,2938 96,2935 100,2935 104,2934 108,2934 112,2927 116,2921 120,2915 124,2916 128,2919 132,2918 136,2907 140,2905 144,2903 148,2900 152,2895 156,2887 160,2882 164,2872 168,2871 172,2871 176,2872 180,2874 184,2876 188,2879 192,2881 196,2884 200,2887 204,2894 208,2893 212,2905 216,2913 220,2911 224,2909 228,2911 232,2912 236,2920 240,2920 244,2923 248,2931 252,2945 256,2940 260,2932 264,2928 268,2934 272,2940 276,2942 280,2944 284,2944 288,2943 292,2942 296,2942 300,2934 304,2926 308,2920 312,2919 316,2920 316,2734 0,2734"
       style="fill:#ffffff;stroke:#ff0000;stroke-width:4"
       id="polyline35"
       transform="translate(32.899278,-2132.5685)" />
    <polyline
       points="0,2934 0,3092 0,3092 4,3091 8,3085 12,3079 16,3089 20,3092 24,3099 28,3102 32,3108 36,3111 40,3121 44,3125 48,3128 52,3127 56,3127 60,3121 64,3110 68,3109 72,3121 76,3129 80,3142 84,3146 88,3152 92,3153 96,3157 100,3160 104,3166 108,3159 112,3142 116,3136 120,3128 124,3123 128,3109 132,3107 136,3107 140,3106 144,3102 148,3097 152,3093 156,3090 160,3089 164,3084 168,3086 172,3083 176,3083 180,3081 184,3080 188,3079 192,3078 196,3091 200,3093 204,3087 208,3086 212,3088 216,3091 220,3094 224,3094 228,3098 232,3100 236,3104 240,3106 244,3117 248,3124 252,3135 256,3143 260,3154 264,3153 268,3151 272,3153 276,3155 280,3152 284,3145 288,3141 292,3137 296,3135 300,3128 304,3126 308,3125 312,3121 316,3114 316,2934 0,2934"
       style="fill:#ffffff;stroke:#ff0000;stroke-width:4"
       id="polyline37"
       transform="translate(30.878978,-2116.4424)" />
    <polyline
       points="0,3134 0,3302 0,3302 4,3302 8,3302 12,3302 16,3301 20,3301 24,3303 28,3303 32,3298 36,3298 40,3305 44,3309 48,3317 52,3323 56,3336 60,3343 64,3354 68,3357 72,3363 76,3364 80,3365 84,3366 88,3371 92,3374 96,3379 100,3379 104,3367 108,3359 112,3344 116,3337 120,3334 124,3330 128,3321 132,3318 136,3308 140,3304 144,3302 148,3306 152,3304 156,3296 160,3296 164,3295 168,3293 172,3297 176,3303 180,3299 184,3294 188,3289 192,3284 196,3292 200,3298 204,3303 208,3303 212,3314 216,3314 220,3314 224,3317 228,3319 232,3317 236,3313 240,3313 244,3316 248,3321 252,3329 256,3330 260,3332 264,3341 268,3345 272,3342 276,3333 280,3335 284,3342 288,3337 292,3336 296,3333 300,3330 304,3329 308,3323 312,3317 316,3306 316,3134 0,3134"
       style="fill:#ffffff;stroke:#ff0000;stroke-width:4"
       id="polyline39"
       transform="translate(384.96168,-2982.1574)" />
    <polyline
       points="0,3334 0,3482 0,3482 4,3489 8,3498 12,3500 16,3505 20,3509 24,3517 28,3521 32,3527 36,3530 40,3535 44,3539 48,3543 52,3544 56,3551 60,3553 64,3556 68,3557 72,3563 76,3566 80,3572 84,3574 88,3580 92,3582 96,3586 100,3584 104,3569 108,3563 112,3550 116,3543 120,3532 124,3529 128,3519 132,3517 136,3513 140,3513 144,3514 148,3515 152,3516 156,3508 160,3504 164,3510 168,3517 172,3515 176,3511 180,3507 184,3502 188,3495 192,3494 196,3505 200,3502 204,3499 208,3495 212,3500 216,3501 220,3504 224,3503 228,3503 232,3503 236,3507 240,3511 244,3514 248,3519 252,3532 256,3535 260,3536 264,3535 268,3538 272,3539 276,3545 280,3545 284,3531 288,3534 292,3531 296,3528 300,3534 304,3529 308,3525 312,3528 316,3533 316,3334 0,3334"
       style="fill:#ffffff;stroke:#ff0000;stroke-width:4"
       id="polyline41"
       transform="translate(370.67598,-2925.0145)" />
    <polyline
       points="0,3534 0,3682 0,3682 4,3683 8,3685 12,3685 16,3694 20,3700 24,3707 28,3711 32,3717 36,3720 40,3726 44,3726 48,3732 52,3734 56,3740 60,3743 64,3746 68,3750 72,3757 76,3759 80,3759 84,3760 88,3769 92,3773 96,3776 100,3777 104,3769 108,3766 112,3758 116,3756 120,3754 124,3751 128,3741 132,3737 136,3732 140,3731 144,3730 148,3735 152,3735 156,3738 160,3736 164,3724 168,3720 172,3710 176,3710 180,3708 184,3706 188,3704 192,3704 196,3705 200,3706 204,3712 208,3715 212,3722 216,3724 220,3726 224,3729 228,3723 232,3726 236,3735 240,3739 244,3744 248,3745 252,3741 256,3738 260,3740 264,3742 268,3738 272,3741 276,3744 280,3745 284,3746 288,3750 292,3755 296,3750 300,3741 304,3739 308,3742 312,3738 316,3726 316,3534 0,3534"
       style="fill:#ffffff;stroke:#ff0000;stroke-width:4"
       id="polyline43"
       transform="translate(373.53308,-2867.8716)" />
    <polyline
       points="46,2333 41,2339 41,2366 39,2366 39,2339 34,2333"
       style="fill:#ffffff;stroke:#ff0000;stroke-width:4"
       id="polyline223"
       transform="translate(30.388778,-2207.8577)" />
    <polyline
       points="86,2333 81,2339 81,2366 79,2366 79,2339 74,2333"
       style="fill:#ffffff;stroke:#ff0000;stroke-width:4"
       id="polyline225"
       transform="translate(30.388778,-2207.8577)" />
    <polyline
       points="126,2333 121,2339 121,2366 119,2366 119,2339 114,2333"
       style="fill:#ffffff;stroke:#ff0000;stroke-width:4"
       id="polyline227"
       transform="translate(30.388778,-2207.8577)" />
    <polyline
       points="166,2333 161,2339 161,2366 159,2366 159,2339 154,2333"
       style="fill:#ffffff;stroke:#ff0000;stroke-width:4"
       id="polyline229"
       transform="translate(30.388778,-2207.8577)" />
    <polyline
       points="206,2333 201,2339 201,2366 199,2366 199,2339 194,2333"
       style="fill:#ffffff;stroke:#ff0000;stroke-width:4"
       id="polyline231"
       transform="translate(30.388778,-2207.8577)" />
    <polyline
       points="246,2333 241,2339 241,2366 239,2366 239,2339 234,2333"
       style="fill:#ffffff;stroke:#ff0000;stroke-width:4"
       id="polyline233"
       transform="translate(30.388778,-2207.8577)" />
    <polyline
       points="286,2333 281,2339 281,2366 279,2366 279,2339 274,2333"
       style="fill:#ffffff;stroke:#ff0000;stroke-width:4"
       id="polyline235"
       transform="translate(30.388778,-2207.8577)" />
    <polyline
       points="46,2533 41,2539 41,2566 39,2566 39,2539 34,2533"
       style="fill:#ffffff;stroke:#ff0000;stroke-width:4"
       id="polyline237"
       transform="translate(33.245978,-2170.1434)" />
    <polyline
       points="86,2533 81,2539 81,2566 79,2566 79,2539 74,2533"
       style="fill:#ffffff;stroke:#ff0000;stroke-width:4"
       id="polyline239"
       transform="translate(33.245978,-2170.1434)" />
    <polyline
       points="126,2533 121,2539 121,2566 119,2566 119,2539 114,2533"
       style="fill:#ffffff;stroke:#ff0000;stroke-width:4"
       id="polyline241"
       transform="translate(33.245978,-2170.1434)" />
    <polyline
       points="166,2533 161,2539 161,2566 159,2566 159,2539 154,2533"
       style="fill:#ffffff;stroke:#ff0000;stroke-width:4"
       id="polyline243"
       transform="translate(33.245978,-2170.1434)" />
    <polyline
       points="206,2533 201,2539 201,2566 199,2566 199,2539 194,2533"
       style="fill:#ffffff;stroke:#ff0000;stroke-width:4"
       id="polyline245"
       transform="translate(33.245978,-2170.1434)" />
    <polyline
       points="246,2533 241,2539 241,2566 239,2566 239,2539 234,2533"
       style="fill:#ffffff;stroke:#ff0000;stroke-width:4"
       id="polyline247"
       transform="translate(33.245978,-2170.1434)" />
    <polyline
       points="286,2533 281,2539 281,2566 279,2566 279,2539 274,2533"
       style="fill:#ffffff;stroke:#ff0000;stroke-width:4"
       id="polyline249"
       transform="translate(33.245978,-2170.1434)" />
    <polyline
       points="46,2733 41,2739 41,2766 39,2766 39,2739 34,2733"
       style="fill:#ffffff;stroke:#ff0000;stroke-width:4"
       id="polyline251"
       transform="translate(32.899278,-2132.5685)" />
    <polyline
       points="86,2733 81,2739 81,2766 79,2766 79,2739 74,2733"
       style="fill:#ffffff;stroke:#ff0000;stroke-width:4"
       id="polyline253"
       transform="translate(32.899278,-2132.5685)" />
    <polyline
       points="126,2733 121,2739 121,2766 119,2766 119,2739 114,2733"
       style="fill:#ffffff;stroke:#ff0000;stroke-width:4"
       id="polyline255"
       transform="translate(32.899278,-2132.5685)" />
    <polyline
       points="166,2733 161,2739 161,2766 159,2766 159,2739 154,2733"
       style="fill:#ffffff;stroke:#ff0000;stroke-width:4"
       id="polyline257"
       transform="translate(32.899278,-2132.5685)" />
    <polyline
       points="206,2733 201,2739 201,2766 199,2766 199,2739 194,2733"
       style="fill:#ffffff;stroke:#ff0000;stroke-width:4"
       id="polyline259"
       transform="translate(32.899278,-2132.5685)" />
    <polyline
       points="246,2733 241,2739 241,2766 239,2766 239,2739 234,2733"
       style="fill:#ffffff;stroke:#ff0000;stroke-width:4"
       id="polyline261"
       transform="translate(32.899278,-2132.5685)" />
    <polyline
       points="286,2733 281,2739 281,2766 279,2766 279,2739 274,2733"
       style="fill:#ffffff;stroke:#ff0000;stroke-width:4"
       id="polyline263"
       transform="translate(32.899278,-2132.5685)" />
    <polyline
       points="46,2933 41,2939 41,2966 39,2966 39,2939 34,2933"
       style="fill:#ffffff;stroke:#ff0000;stroke-width:4"
       id="polyline265"
       transform="translate(30.878978,-2116.4424)" />
    <polyline
       points="86,2933 81,2939 81,2966 79,2966 79,2939 74,2933"
       style="fill:#ffffff;stroke:#ff0000;stroke-width:4"
       id="polyline267"
       transform="translate(30.878978,-2116.4424)" />
    <polyline
       points="126,2933 121,2939 121,2966 119,2966 119,2939 114,2933"
       style="fill:#ffffff;stroke:#ff0000;stroke-width:4"
       id="polyline269"
       transform="translate(30.878978,-2116.4424)" />
    <polyline
       points="166,2933 161,2939 161,2966 159,2966 159,2939 154,2933"
       style="fill:#ffffff;stroke:#ff0000;stroke-width:4"
       id="polyline271"
       transform="translate(30.878978,-2116.4424)" />
    <polyline
       points="206,2933 201,2939 201,2966 199,2966 199,2939 194,2933"
       style="fill:#ffffff;stroke:#ff0000;stroke-width:4"
       id="polyline273"
       transform="translate(30.878978,-2116.4424)" />
    <polyline
       points="246,2933 241,2939 241,2966 239,2966 239,2939 234,2933"
       style="fill:#ffffff;stroke:#ff0000;stroke-width:4"
       id="polyline275"
       transform="translate(30.878978,-2116.4424)" />
    <polyline
       points="286,2933 281,2939 281,2966 279,2966 279,2939 274,2933"
       style="fill:#ffffff;stroke:#ff0000;stroke-width:4"
       id="polyline277"
       transform="translate(30.878978,-2116.4424)" />
    <polyline
       points="46,3133 41,3139 41,3166 39,3166 39,3139 34,3133"
       style="fill:#ffffff;stroke:#ff0000;stroke-width:4"
       id="polyline279"
       transform="translate(384.96168,-2982.1574)" />
    <polyline
       points="86,3133 81,3139 81,3166 79,3166 79,3139 74,3133"
       style="fill:#ffffff;stroke:#ff0000;stroke-width:4"
       id="polyline281"
       transform="translate(384.96168,-2982.1574)" />
    <polyline
       points="126,3133 121,3139 121,3166 119,3166 119,3139 114,3133"
       style="fill:#ffffff;stroke:#ff0000;stroke-width:4"
       id="polyline283"
       transform="translate(384.96168,-2982.1574)" />
    <polyline
       points="166,3133 161,3139 161,3166 159,3166 159,3139 154,3133"
       style="fill:#ffffff;stroke:#ff0000;stroke-width:4"
       id="polyline285"
       transform="translate(384.96168,-2982.1574)" />
    <polyline
       points="206,3133 201,3139 201,3166 199,3166 199,3139 194,3133"
       style="fill:#ffffff;stroke:#ff0000;stroke-width:4"
       id="polyline287"
       transform="translate(384.96168,-2982.1574)" />
    <polyline
       points="246,3133 241,3139 241,3166 239,3166 239,3139 234,3133"
       style="fill:#ffffff;stroke:#ff0000;stroke-width:4"
       id="polyline289"
       transform="translate(384.96168,-2982.1574)" />
    <polyline
       points="286,3133 281,3139 281,3166 279,3166 279,3139 274,3133"
       style="fill:#ffffff;stroke:#ff0000;stroke-width:4"
       id="polyline291"
       transform="translate(384.96168,-2982.1574)" />
    <polyline
       points="46,3333 41,3339 41,3366 39,3366 39,3339 34,3333"
       style="fill:#ffffff;stroke:#ff0000;stroke-width:4"
       id="polyline293"
       transform="translate(370.67598,-2925.0145)" />
    <polyline
       points="86,3333 81,3339 81,3366 79,3366 79,3339 74,3333"
       style="fill:#ffffff;stroke:#ff0000;stroke-width:4"
       id="polyline295"
       transform="translate(370.67598,-2925.0145)" />
    <polyline
       points="126,3333 121,3339 121,3366 119,3366 119,3339 114,3333"
       style="fill:#ffffff;stroke:#ff0000;stroke-width:4"
       id="polyline297"
       transform="translate(370.67598,-2925.0145)" />
    <polyline
       points="166,3333 161,3339 161,3366 159,3366 159,3339 154,3333"
       style="fill:#ffffff;stroke:#ff0000;stroke-width:4"
       id="polyline299"
       transform="translate(370.67598,-2925.0145)" />
    <polyline
       points="206,3333 201,3339 201,3366 199,3366 199,3339 194,3333"
       style="fill:#ffffff;stroke:#ff0000;stroke-width:4"
       id="polyline301"
       transform="translate(370.67598,-2925.0145)" />
    <polyline
       points="246,3333 241,3339 241,3366 239,3366 239,3339 234,3333"
       style="fill:#ffffff;stroke:#ff0000;stroke-width:4"
       id="polyline303"
       transform="translate(370.67598,-2925.0145)" />
    <polyline
       points="286,3333 281,3339 281,3366 279,3366 279,3339 274,3333"
       style="fill:#ffffff;stroke:#ff0000;stroke-width:4"
       id="polyline305"
       transform="translate(370.67598,-2925.0145)" />
    <polyline
       points="46,3533 41,3539 41,3566 39,3566 39,3539 34,3533"
       style="fill:#ffffff;stroke:#ff0000;stroke-width:4"
       id="polyline307"
       transform="translate(373.53308,-2867.8716)" />
    <polyline
       points="86,3533 81,3539 81,3566 79,3566 79,3539 74,3533"
       style="fill:#ffffff;stroke:#ff0000;stroke-width:4"
       id="polyline309"
       transform="translate(373.53308,-2867.8716)" />
    <polyline
       points="126,3533 121,3539 121,3566 119,3566 119,3539 114,3533"
       style="fill:#ffffff;stroke:#ff0000;stroke-width:4"
       id="polyline311"
       transform="translate(373.53308,-2867.8716)" />
    <polyline
       points="166,3533 161,3539 161,3566 159,3566 159,3539 154,3533"
       style="fill:#ffffff;stroke:#ff0000;stroke-width:4"
       id="polyline313"
       transform="translate(373.53308,-2867.8716)" />
    <polyline
       points="206,3533 201,3539 201,3566 199,3566 199,3539 194,3533"
       style="fill:#ffffff;stroke:#ff0000;stroke-width:4"
       id="polyline315"
       transform="translate(373.53308,-2867.8716)" />
    <polyline
       points="246,3533 241,3539 241,3566 239,3566 239,3539 234,3533"
       style="fill:#ffffff;stroke:#ff0000;stroke-width:4"
       id="polyline317"
       transform="translate(373.53308,-2867.8716)" />
    <polyline
       points="286,3533 281,3539 281,3566 279,3566 279,3539 274,3533"
       style="fill:#ffffff;stroke:#ff0000;stroke-width:4"
       id="polyline319"
       transform="translate(373.53308,-2867.8716)" />
  </g>
</svg>
