<?xml version="1.0" encoding="UTF-8" standalone="no"?>
<!-- Created with Inkscape (http://www.inkscape.org/) -->

<svg
   xmlns:dc="http://purl.org/dc/elements/1.1/"
   xmlns:cc="http://creativecommons.org/ns#"
   xmlns:rdf="http://www.w3.org/1999/02/22-rdf-syntax-ns#"
   xmlns:svg="http://www.w3.org/2000/svg"
   xmlns="http://www.w3.org/2000/svg"
   xmlns:sodipodi="http://sodipodi.sourceforge.net/DTD/sodipodi-0.dtd"
   xmlns:inkscape="http://www.inkscape.org/namespaces/inkscape"
   width="210mm"
   height="297mm"
   viewBox="0 0 744.09448819 1052.3622047"
   id="svg3941"
   version="1.1"
   inkscape:version="0.91 r"
   sodipodi:docname="v2-part-a.svg">
  <defs
     id="defs3943" />
  <sodipodi:namedview
     id="base"
     pagecolor="#ffffff"
     bordercolor="#666666"
     borderopacity="1.0"
     inkscape:pageopacity="0.0"
     inkscape:pageshadow="2"
     inkscape:zoom="0.49497474"
     inkscape:cx="349.88222"
     inkscape:cy="835.85313"
     inkscape:document-units="px"
     inkscape:current-layer="layer1"
     showgrid="false"
     inkscape:window-width="960"
     inkscape:window-height="1031"
     inkscape:window-x="958"
     inkscape:window-y="0"
     inkscape:window-maximized="0" />
  <metadata
     id="metadata3946">
    <rdf:RDF>
      <cc:Work
         rdf:about="">
        <dc:format>image/svg+xml</dc:format>
        <dc:type
           rdf:resource="http://purl.org/dc/dcmitype/StillImage" />
        <dc:title />
      </cc:Work>
    </rdf:RDF>
  </metadata>
  <g
     inkscape:label="Layer 1"
     inkscape:groupmode="layer"
     id="layer1">
    <polyline
       points="0,134 0,202 0,202 4,203 8,203 12,203 16,204 20,204 24,203 28,203 32,207 36,208 40,209 44,210 48,212 52,213 56,217 60,219 64,222 68,222 72,224 76,224 80,225 84,226 88,226 92,226 96,228 100,228 104,228 108,227 112,227 116,227 120,229 124,230 128,231 132,232 136,234 140,235 144,238 148,246 152,248 156,248 160,251 164,256 168,259 172,259 176,257 180,251 184,247 188,237 192,235 196,231 200,229 204,228 208,229 212,229 216,227 220,223 224,224 228,223 232,224 236,221 240,222 244,221 248,223 252,230 256,237 260,236 264,233 268,237 272,242 276,244 280,240 284,227 288,222 292,219 296,225 300,230 304,231 308,234 312,233 316,230 316,134 0,134"
       style="fill:#ffffff;stroke:#ff0000;stroke-width:4"
       id="polyline9"
       transform="translate(29.071064,70.877287)" />
    <polyline
       points="0,334 0,404 0,404 4,405 8,405 12,405 16,406 20,406 24,406 28,406 32,407 36,406 40,406 44,408 48,408 52,408 56,408 60,409 64,412 68,415 72,418 76,419 80,423 84,424 88,425 92,427 96,432 100,434 104,433 108,432 112,432 116,435 120,438 124,436 128,429 132,425 136,426 140,431 144,433 148,436 152,440 156,445 160,447 164,448 168,447 172,446 176,445 180,442 184,444 188,444 192,443 196,437 200,439 204,443 208,440 212,444 216,441 220,433 224,434 228,441 232,441 236,435 240,432 244,438 248,440 252,449 256,453 260,461 264,460 268,453 272,449 276,444 280,436 284,431 288,437 292,440 296,432 300,425 304,434 308,444 312,445 316,451 316,334 0,334"
       style="fill:#ffffff;stroke:#ff0000;stroke-width:4"
       id="polyline11"
       transform="translate(33.111664,0.22752714)" />
    <polyline
       points="0,534 0,606 0,606 4,606 8,607 12,607 16,608 20,608 24,609 28,609 32,609 36,610 40,611 44,611 48,611 52,611 56,612 60,613 64,615 68,619 72,620 76,620 80,622 84,623 88,628 92,629 96,629 100,628 104,634 108,637 112,641 116,640 120,639 124,641 128,649 132,651 136,652 140,646 144,640 148,627 152,624 156,633 160,642 164,652 168,656 172,655 176,653 180,652 184,650 188,652 192,655 196,656 200,654 204,654 208,657 212,653 216,650 220,645 224,652 228,655 232,654 236,652 240,647 244,640 248,636 252,641 256,643 260,646 264,646 268,639 272,634 276,648 280,652 284,659 288,663 292,661 296,655 300,646 304,641 308,631 312,629 316,643 316,534 0,534"
       style="fill:#ffffff;stroke:#ff0000;stroke-width:4"
       id="polyline13"
       transform="translate(31.091364,-66.361313)" />
    <polyline
       points="0,734 0,804 0,804 4,805 8,806 12,807 16,807 20,808 24,810 28,813 32,820 36,820 40,817 44,815 48,815 52,815 56,816 60,816 64,818 68,818 72,820 76,821 80,826 84,828 88,822 92,825 96,833 100,836 104,838 108,837 112,836 116,837 120,843 124,848 128,854 132,857 136,861 140,861 144,861 148,857 152,851 156,838 160,830 164,839 168,847 172,858 176,862 180,863 184,863 188,863 192,867 196,872 200,869 204,864 208,860 212,857 216,862 220,864 224,859 228,851 232,847 236,844 240,844 244,848 248,846 252,847 256,850 260,852 264,848 268,840 272,839 276,847 280,852 284,859 288,861 292,868 296,868 300,858 304,850 308,838 312,835 316,852 316,734 0,734"
       style="fill:#ffffff;stroke:#ff0000;stroke-width:4"
       id="polyline15"
       transform="translate(33.111664,-132.95016)" />
    <polyline
       points="0,934 0,1003 0,1003 4,1003 8,1004 12,1004 16,1005 20,1006 24,1006 28,1007 32,1009 36,1010 40,1017 44,1021 48,1026 52,1027 56,1028 60,1027 64,1031 68,1035 72,1041 76,1043 80,1046 84,1043 88,1032 92,1028 96,1028 100,1029 104,1032 108,1036 112,1041 116,1041 120,1042 124,1045 128,1050 132,1054 136,1060 140,1062 144,1062 148,1065 152,1062 156,1050 160,1039 164,1035 168,1044 172,1055 176,1056 180,1060 184,1063 188,1069 192,1074 196,1079 200,1081 204,1073 208,1070 212,1073 216,1073 220,1069 224,1063 228,1054 232,1060 236,1067 240,1068 244,1075 248,1076 252,1063 256,1058 260,1048 264,1048 268,1057 272,1056 276,1052 280,1051 284,1051 288,1049 292,1044 296,1043 300,1044 304,1048 308,1060 312,1069 316,1073 316,934 0,934"
       style="fill:#ffffff;stroke:#ff0000;stroke-width:4"
       id="polyline17"
       transform="translate(35.131964,-191.47809)" />
    <polyline
       points="0,1134 0,1207 0,1207 4,1208 8,1210 12,1210 16,1214 20,1216 24,1215 28,1215 32,1219 36,1218 40,1220 44,1223 48,1228 52,1231 56,1234 60,1234 64,1237 68,1239 72,1241 76,1241 80,1241 84,1242 88,1250 92,1251 96,1250 100,1246 104,1245 108,1242 112,1241 116,1243 120,1243 124,1242 128,1242 132,1244 136,1249 140,1253 144,1256 148,1256 152,1255 156,1250 160,1248 164,1241 168,1236 172,1246 176,1255 180,1268 184,1274 188,1284 192,1289 196,1291 200,1290 204,1288 208,1287 212,1281 216,1276 220,1268 224,1269 228,1273 232,1278 236,1279 240,1278 244,1274 248,1270 252,1266 256,1264 260,1255 264,1258 268,1268 272,1272 276,1269 280,1264 284,1255 288,1251 292,1250 296,1252 300,1248 304,1241 308,1248 312,1253 316,1263 316,1134 0,1134"
       style="fill:#ffffff;stroke:#ff0000;stroke-width:4"
       id="polyline19"
       transform="translate(35.131964,-241.9045)" />
    <polyline
       points="0,1534 0,1613 0,1613 4,1614 8,1614 12,1614 16,1615 20,1616 24,1618 28,1621 32,1622 36,1623 40,1626 44,1628 48,1635 52,1637 56,1642 60,1645 64,1647 68,1647 72,1648 76,1649 80,1649 84,1651 88,1656 92,1661 96,1669 100,1670 104,1672 108,1675 112,1682 116,1680 120,1671 124,1666 128,1680 132,1685 136,1691 140,1690 144,1688 148,1685 152,1684 156,1681 160,1683 164,1693 168,1691 172,1678 176,1670 180,1655 184,1646 188,1647 192,1656 196,1673 200,1680 204,1689 208,1693 212,1704 216,1706 220,1706 224,1705 228,1695 232,1695 236,1693 240,1685 244,1690 248,1697 252,1697 256,1695 260,1690 264,1691 268,1693 272,1693 276,1693 280,1693 284,1689 288,1682 292,1671 296,1667 300,1663 304,1661 308,1655 312,1652 316,1655 316,1534 0,1534"
       style="fill:#ffffff;stroke:#ff0000;stroke-width:4"
       id="polyline23"
       transform="translate(396.82606,-1302.7818)" />
    <polyline
       points="0,1734 0,1819 0,1819 4,1819 8,1820 12,1821 16,1823 20,1823 24,1825 28,1827 32,1835 36,1836 40,1837 44,1840 48,1838 52,1835 56,1844 60,1846 64,1856 68,1862 72,1866 76,1863 80,1865 84,1869 88,1869 92,1870 96,1875 100,1878 104,1883 108,1887 112,1894 116,1892 120,1881 124,1884 128,1891 132,1895 136,1904 140,1910 144,1915 148,1919 152,1919 156,1915 160,1909 164,1890 168,1883 172,1868 176,1863 180,1848 184,1848 188,1853 192,1860 196,1870 200,1873 204,1882 208,1889 212,1909 216,1912 220,1913 224,1913 228,1911 232,1910 236,1910 240,1910 244,1900 248,1898 252,1903 256,1910 260,1911 264,1912 268,1908 272,1905 276,1893 280,1884 284,1884 288,1892 292,1888 296,1879 300,1868 304,1864 308,1859 312,1859 316,1868 316,1734 0,1734"
       style="fill:#ffffff;stroke:#ff0000;stroke-width:4"
       id="polyline25"
       transform="translate(396.82606,-1326.7818)" />
    <polyline
       points="0,1934 0,2039 0,2039 4,2040 8,2037 12,2032 16,2030 20,2030 24,2030 28,2031 32,2034 36,2036 40,2038 44,2038 48,2037 52,2039 56,2049 60,2052 64,2062 68,2067 72,2079 76,2083 80,2081 84,2078 88,2083 92,2087 96,2094 100,2098 104,2104 108,2108 112,2112 116,2110 120,2103 124,2102 128,2113 132,2117 136,2126 140,2128 144,2128 148,2116 152,2110 156,2095 160,2086 164,2073 168,2070 172,2063 176,2055 180,2054 184,2058 188,2067 192,2070 196,2072 200,2075 204,2086 208,2092 212,2106 216,2115 220,2130 224,2135 228,2135 232,2132 236,2123 240,2118 244,2117 248,2120 252,2129 256,2128 260,2124 264,2120 268,2109 272,2104 276,2122 280,2120 284,2102 288,2092 292,2092 296,2096 300,2096 304,2085 308,2071 312,2067 316,2075 316,1934 0,1934"
       style="fill:#ffffff;stroke:#ff0000;stroke-width:4"
       id="polyline27"
       transform="translate(396.82606,-1330.7818)" />
    <polyline
       points="0,2134 0,2244 0,2244 4,2245 8,2253 12,2258 16,2250 20,2241 24,2241 28,2240 32,2243 36,2245 40,2246 44,2247 48,2254 52,2261 56,2267 60,2259 64,2256 68,2262 72,2271 76,2280 80,2296 84,2302 88,2304 92,2301 96,2296 100,2298 104,2312 108,2316 112,2326 116,2328 120,2331 124,2331 128,2326 132,2321 136,2305 140,2298 144,2296 148,2292 152,2287 156,2277 160,2272 164,2262 168,2258 172,2258 176,2260 180,2268 184,2272 188,2280 192,2284 196,2296 200,2302 204,2319 208,2329 212,2346 216,2347 220,2348 224,2348 228,2344 232,2345 236,2349 240,2350 244,2352 248,2352 252,2345 256,2340 260,2331 264,2332 268,2339 272,2338 276,2339 280,2337 284,2332 288,2326 292,2308 296,2302 300,2289 304,2284 308,2280 312,2288 316,2304 316,2134 0,2134"
       style="fill:#ffffff;stroke:#ff0000;stroke-width:4"
       id="polyline29"
       transform="translate(403.50036,-1322.7949)" />
    <polyline
       points="46,133 41,139 41,166 39,166 39,139 34,133"
       style="fill:#ffffff;stroke:#ff0000;stroke-width:4"
       id="polyline69"
       transform="translate(29.071064,70.877287)" />
    <polyline
       points="86,133 81,139 81,166 79,166 79,139 74,133"
       style="fill:#ffffff;stroke:#ff0000;stroke-width:4"
       id="polyline71"
       transform="translate(29.071064,70.877287)" />
    <polyline
       points="126,133 121,139 121,166 119,166 119,139 114,133"
       style="fill:#ffffff;stroke:#ff0000;stroke-width:4"
       id="polyline73"
       transform="translate(29.071064,70.877287)" />
    <polyline
       points="166,133 161,139 161,166 159,166 159,139 154,133"
       style="fill:#ffffff;stroke:#ff0000;stroke-width:4"
       id="polyline75"
       transform="translate(29.071064,70.877287)" />
    <polyline
       points="206,133 201,139 201,166 199,166 199,139 194,133"
       style="fill:#ffffff;stroke:#ff0000;stroke-width:4"
       id="polyline77"
       transform="translate(29.071064,70.877287)" />
    <polyline
       points="246,133 241,139 241,166 239,166 239,139 234,133"
       style="fill:#ffffff;stroke:#ff0000;stroke-width:4"
       id="polyline79"
       transform="translate(29.071064,70.877287)" />
    <polyline
       points="286,133 281,139 281,166 279,166 279,139 274,133"
       style="fill:#ffffff;stroke:#ff0000;stroke-width:4"
       id="polyline81"
       transform="translate(29.071064,70.877287)" />
    <polyline
       points="46,333 41,339 41,366 39,366 39,339 34,333"
       style="fill:#ffffff;stroke:#ff0000;stroke-width:4"
       id="polyline83"
       transform="translate(33.111664,0.22752714)" />
    <polyline
       points="86,333 81,339 81,366 79,366 79,339 74,333"
       style="fill:#ffffff;stroke:#ff0000;stroke-width:4"
       id="polyline85"
       transform="translate(33.111664,0.22752714)" />
    <polyline
       points="126,333 121,339 121,366 119,366 119,339 114,333"
       style="fill:#ffffff;stroke:#ff0000;stroke-width:4"
       id="polyline87"
       transform="translate(33.111664,0.22752714)" />
    <polyline
       points="166,333 161,339 161,366 159,366 159,339 154,333"
       style="fill:#ffffff;stroke:#ff0000;stroke-width:4"
       id="polyline89"
       transform="translate(33.111664,0.22752714)" />
    <polyline
       points="206,333 201,339 201,366 199,366 199,339 194,333"
       style="fill:#ffffff;stroke:#ff0000;stroke-width:4"
       id="polyline91"
       transform="translate(33.111664,0.22752714)" />
    <polyline
       points="246,333 241,339 241,366 239,366 239,339 234,333"
       style="fill:#ffffff;stroke:#ff0000;stroke-width:4"
       id="polyline93"
       transform="translate(33.111664,0.22752714)" />
    <polyline
       points="286,333 281,339 281,366 279,366 279,339 274,333"
       style="fill:#ffffff;stroke:#ff0000;stroke-width:4"
       id="polyline95"
       transform="translate(33.111664,0.22752714)" />
    <polyline
       points="46,533 41,539 41,566 39,566 39,539 34,533"
       style="fill:#ffffff;stroke:#ff0000;stroke-width:4"
       id="polyline97"
       transform="translate(31.091364,-66.361313)" />
    <polyline
       points="86,533 81,539 81,566 79,566 79,539 74,533"
       style="fill:#ffffff;stroke:#ff0000;stroke-width:4"
       id="polyline99"
       transform="translate(31.091364,-66.361313)" />
    <polyline
       points="126,533 121,539 121,566 119,566 119,539 114,533"
       style="fill:#ffffff;stroke:#ff0000;stroke-width:4"
       id="polyline101"
       transform="translate(31.091364,-66.361313)" />
    <polyline
       points="166,533 161,539 161,566 159,566 159,539 154,533"
       style="fill:#ffffff;stroke:#ff0000;stroke-width:4"
       id="polyline103"
       transform="translate(31.091364,-66.361313)" />
    <polyline
       points="206,533 201,539 201,566 199,566 199,539 194,533"
       style="fill:#ffffff;stroke:#ff0000;stroke-width:4"
       id="polyline105"
       transform="translate(31.091364,-66.361313)" />
    <polyline
       points="246,533 241,539 241,566 239,566 239,539 234,533"
       style="fill:#ffffff;stroke:#ff0000;stroke-width:4"
       id="polyline107"
       transform="translate(31.091364,-66.361313)" />
    <polyline
       points="286,533 281,539 281,566 279,566 279,539 274,533"
       style="fill:#ffffff;stroke:#ff0000;stroke-width:4"
       id="polyline109"
       transform="translate(31.091364,-66.361313)" />
    <polyline
       points="46,733 41,739 41,766 39,766 39,739 34,733"
       style="fill:#ffffff;stroke:#ff0000;stroke-width:4"
       id="polyline111"
       transform="translate(33.111664,-132.95016)" />
    <polyline
       points="86,733 81,739 81,766 79,766 79,739 74,733"
       style="fill:#ffffff;stroke:#ff0000;stroke-width:4"
       id="polyline113"
       transform="translate(33.111664,-132.95016)" />
    <polyline
       points="126,733 121,739 121,766 119,766 119,739 114,733"
       style="fill:#ffffff;stroke:#ff0000;stroke-width:4"
       id="polyline115"
       transform="translate(33.111664,-132.95016)" />
    <polyline
       points="166,733 161,739 161,766 159,766 159,739 154,733"
       style="fill:#ffffff;stroke:#ff0000;stroke-width:4"
       id="polyline117"
       transform="translate(33.111664,-132.95016)" />
    <polyline
       points="206,733 201,739 201,766 199,766 199,739 194,733"
       style="fill:#ffffff;stroke:#ff0000;stroke-width:4"
       id="polyline119"
       transform="translate(33.111664,-132.95016)" />
    <polyline
       points="246,733 241,739 241,766 239,766 239,739 234,733"
       style="fill:#ffffff;stroke:#ff0000;stroke-width:4"
       id="polyline121"
       transform="translate(33.111664,-132.95016)" />
    <polyline
       points="286,733 281,739 281,766 279,766 279,739 274,733"
       style="fill:#ffffff;stroke:#ff0000;stroke-width:4"
       id="polyline123"
       transform="translate(33.111664,-132.95016)" />
    <polyline
       points="46,933 41,939 41,966 39,966 39,939 34,933"
       style="fill:#ffffff;stroke:#ff0000;stroke-width:4"
       id="polyline125"
       transform="translate(35.131964,-191.47809)" />
    <polyline
       points="86,933 81,939 81,966 79,966 79,939 74,933"
       style="fill:#ffffff;stroke:#ff0000;stroke-width:4"
       id="polyline127"
       transform="translate(35.131964,-191.47809)" />
    <polyline
       points="126,933 121,939 121,966 119,966 119,939 114,933"
       style="fill:#ffffff;stroke:#ff0000;stroke-width:4"
       id="polyline129"
       transform="translate(35.131964,-191.47809)" />
    <polyline
       points="166,933 161,939 161,966 159,966 159,939 154,933"
       style="fill:#ffffff;stroke:#ff0000;stroke-width:4"
       id="polyline131"
       transform="translate(35.131964,-191.47809)" />
    <polyline
       points="206,933 201,939 201,966 199,966 199,939 194,933"
       style="fill:#ffffff;stroke:#ff0000;stroke-width:4"
       id="polyline133"
       transform="translate(35.131964,-191.47809)" />
    <polyline
       points="246,933 241,939 241,966 239,966 239,939 234,933"
       style="fill:#ffffff;stroke:#ff0000;stroke-width:4"
       id="polyline135"
       transform="translate(35.131964,-191.47809)" />
    <polyline
       points="286,933 281,939 281,966 279,966 279,939 274,933"
       style="fill:#ffffff;stroke:#ff0000;stroke-width:4"
       id="polyline137"
       transform="translate(35.131964,-191.47809)" />
    <polyline
       points="46,1133 41,1139 41,1166 39,1166 39,1139 34,1133"
       style="fill:#ffffff;stroke:#ff0000;stroke-width:4"
       id="polyline139"
       transform="translate(35.131964,-241.9045)" />
    <polyline
       points="86,1133 81,1139 81,1166 79,1166 79,1139 74,1133"
       style="fill:#ffffff;stroke:#ff0000;stroke-width:4"
       id="polyline141"
       transform="translate(35.131964,-241.9045)" />
    <polyline
       points="126,1133 121,1139 121,1166 119,1166 119,1139 114,1133"
       style="fill:#ffffff;stroke:#ff0000;stroke-width:4"
       id="polyline143"
       transform="translate(35.131964,-241.9045)" />
    <polyline
       points="166,1133 161,1139 161,1166 159,1166 159,1139 154,1133"
       style="fill:#ffffff;stroke:#ff0000;stroke-width:4"
       id="polyline145"
       transform="translate(35.131964,-241.9045)" />
    <polyline
       points="206,1133 201,1139 201,1166 199,1166 199,1139 194,1133"
       style="fill:#ffffff;stroke:#ff0000;stroke-width:4"
       id="polyline147"
       transform="translate(35.131964,-241.9045)" />
    <polyline
       points="246,1133 241,1139 241,1166 239,1166 239,1139 234,1133"
       style="fill:#ffffff;stroke:#ff0000;stroke-width:4"
       id="polyline149"
       transform="translate(35.131964,-241.9045)" />
    <polyline
       points="286,1133 281,1139 281,1166 279,1166 279,1139 274,1133"
       style="fill:#ffffff;stroke:#ff0000;stroke-width:4"
       id="polyline151"
       transform="translate(35.131964,-241.9045)" />
    <polyline
       points="46,1533 41,1539 41,1566 39,1566 39,1539 34,1533"
       style="fill:#ffffff;stroke:#ff0000;stroke-width:4"
       id="polyline167"
       transform="translate(396.82606,-1302.7818)" />
    <polyline
       points="86,1533 81,1539 81,1566 79,1566 79,1539 74,1533"
       style="fill:#ffffff;stroke:#ff0000;stroke-width:4"
       id="polyline169"
       transform="translate(396.82606,-1302.7818)" />
    <polyline
       points="126,1533 121,1539 121,1566 119,1566 119,1539 114,1533"
       style="fill:#ffffff;stroke:#ff0000;stroke-width:4"
       id="polyline171"
       transform="translate(396.82606,-1302.7818)" />
    <polyline
       points="166,1533 161,1539 161,1566 159,1566 159,1539 154,1533"
       style="fill:#ffffff;stroke:#ff0000;stroke-width:4"
       id="polyline173"
       transform="translate(396.82606,-1302.7818)" />
    <polyline
       points="206,1533 201,1539 201,1566 199,1566 199,1539 194,1533"
       style="fill:#ffffff;stroke:#ff0000;stroke-width:4"
       id="polyline175"
       transform="translate(396.82606,-1302.7818)" />
    <polyline
       points="246,1533 241,1539 241,1566 239,1566 239,1539 234,1533"
       style="fill:#ffffff;stroke:#ff0000;stroke-width:4"
       id="polyline177"
       transform="translate(396.82606,-1302.7818)" />
    <polyline
       points="286,1533 281,1539 281,1566 279,1566 279,1539 274,1533"
       style="fill:#ffffff;stroke:#ff0000;stroke-width:4"
       id="polyline179"
       transform="translate(396.82606,-1302.7818)" />
    <polyline
       points="46,1733 41,1739 41,1766 39,1766 39,1739 34,1733"
       style="fill:#ffffff;stroke:#ff0000;stroke-width:4"
       id="polyline181"
       transform="translate(396.82606,-1326.7818)" />
    <polyline
       points="86,1733 81,1739 81,1766 79,1766 79,1739 74,1733"
       style="fill:#ffffff;stroke:#ff0000;stroke-width:4"
       id="polyline183"
       transform="translate(396.82606,-1326.7818)" />
    <polyline
       points="126,1733 121,1739 121,1766 119,1766 119,1739 114,1733"
       style="fill:#ffffff;stroke:#ff0000;stroke-width:4"
       id="polyline185"
       transform="translate(396.82606,-1326.7818)" />
    <polyline
       points="166,1733 161,1739 161,1766 159,1766 159,1739 154,1733"
       style="fill:#ffffff;stroke:#ff0000;stroke-width:4"
       id="polyline187"
       transform="translate(396.82606,-1326.7818)" />
    <polyline
       points="206,1733 201,1739 201,1766 199,1766 199,1739 194,1733"
       style="fill:#ffffff;stroke:#ff0000;stroke-width:4"
       id="polyline189"
       transform="translate(396.82606,-1326.7818)" />
    <polyline
       points="246,1733 241,1739 241,1766 239,1766 239,1739 234,1733"
       style="fill:#ffffff;stroke:#ff0000;stroke-width:4"
       id="polyline191"
       transform="translate(396.82606,-1326.7818)" />
    <polyline
       points="286,1733 281,1739 281,1766 279,1766 279,1739 274,1733"
       style="fill:#ffffff;stroke:#ff0000;stroke-width:4"
       id="polyline193"
       transform="translate(396.82606,-1326.7818)" />
    <polyline
       points="46,1933 41,1939 41,1966 39,1966 39,1939 34,1933"
       style="fill:#ffffff;stroke:#ff0000;stroke-width:4"
       id="polyline195"
       transform="translate(396.82606,-1330.7818)" />
    <polyline
       points="86,1933 81,1939 81,1966 79,1966 79,1939 74,1933"
       style="fill:#ffffff;stroke:#ff0000;stroke-width:4"
       id="polyline197"
       transform="translate(396.82606,-1330.7818)" />
    <polyline
       points="126,1933 121,1939 121,1966 119,1966 119,1939 114,1933"
       style="fill:#ffffff;stroke:#ff0000;stroke-width:4"
       id="polyline199"
       transform="translate(396.82606,-1330.7818)" />
    <polyline
       points="166,1933 161,1939 161,1966 159,1966 159,1939 154,1933"
       style="fill:#ffffff;stroke:#ff0000;stroke-width:4"
       id="polyline201"
       transform="translate(396.82606,-1330.7818)" />
    <polyline
       points="206,1933 201,1939 201,1966 199,1966 199,1939 194,1933"
       style="fill:#ffffff;stroke:#ff0000;stroke-width:4"
       id="polyline203"
       transform="translate(396.82606,-1330.7818)" />
    <polyline
       points="246,1933 241,1939 241,1966 239,1966 239,1939 234,1933"
       style="fill:#ffffff;stroke:#ff0000;stroke-width:4"
       id="polyline205"
       transform="translate(396.82606,-1330.7818)" />
    <polyline
       points="286,1933 281,1939 281,1966 279,1966 279,1939 274,1933"
       style="fill:#ffffff;stroke:#ff0000;stroke-width:4"
       id="polyline207"
       transform="translate(396.82606,-1330.7818)" />
    <polyline
       points="46,2133 41,2139 41,2166 39,2166 39,2139 34,2133"
       style="fill:#ffffff;stroke:#ff0000;stroke-width:4"
       id="polyline209"
       transform="translate(403.50036,-1322.7949)" />
    <polyline
       points="86,2133 81,2139 81,2166 79,2166 79,2139 74,2133"
       style="fill:#ffffff;stroke:#ff0000;stroke-width:4"
       id="polyline211"
       transform="translate(403.50036,-1322.7949)" />
    <polyline
       points="126,2133 121,2139 121,2166 119,2166 119,2139 114,2133"
       style="fill:#ffffff;stroke:#ff0000;stroke-width:4"
       id="polyline213"
       transform="translate(403.50036,-1322.7949)" />
    <polyline
       points="166,2133 161,2139 161,2166 159,2166 159,2139 154,2133"
       style="fill:#ffffff;stroke:#ff0000;stroke-width:4"
       id="polyline215"
       transform="translate(403.50036,-1322.7949)" />
    <polyline
       points="206,2133 201,2139 201,2166 199,2166 199,2139 194,2133"
       style="fill:#ffffff;stroke:#ff0000;stroke-width:4"
       id="polyline217"
       transform="translate(403.50036,-1322.7949)" />
    <polyline
       points="246,2133 241,2139 241,2166 239,2166 239,2139 234,2133"
       style="fill:#ffffff;stroke:#ff0000;stroke-width:4"
       id="polyline219"
       transform="translate(403.50036,-1322.7949)" />
    <polyline
       points="286,2133 281,2139 281,2166 279,2166 279,2139 274,2133"
       style="fill:#ffffff;stroke:#ff0000;stroke-width:4"
       id="polyline221"
       transform="translate(403.50036,-1322.7949)" />
  </g>
</svg>
