<?xml version="1.0" encoding="UTF-8" standalone="no"?>
<!-- Created with Inkscape (http://www.inkscape.org/) -->

<svg
   xmlns:dc="http://purl.org/dc/elements/1.1/"
   xmlns:cc="http://creativecommons.org/ns#"
   xmlns:rdf="http://www.w3.org/1999/02/22-rdf-syntax-ns#"
   xmlns:svg="http://www.w3.org/2000/svg"
   xmlns="http://www.w3.org/2000/svg"
   xmlns:sodipodi="http://sodipodi.sourceforge.net/DTD/sodipodi-0.dtd"
   xmlns:inkscape="http://www.inkscape.org/namespaces/inkscape"
   width="210mm"
   height="297mm"
   viewBox="0 0 744.09448819 1052.3622047"
   id="svg3941"
   version="1.1"
   inkscape:version="0.91 r"
   sodipodi:docname="v2-part-c.svg">
  <defs
     id="defs3943" />
  <sodipodi:namedview
     id="base"
     pagecolor="#ffffff"
     bordercolor="#666666"
     borderopacity="1.0"
     inkscape:pageopacity="0.0"
     inkscape:pageshadow="2"
     inkscape:zoom="0.35"
     inkscape:cx="646.94021"
     inkscape:cy="10.292192"
     inkscape:document-units="px"
     inkscape:current-layer="layer1"
     showgrid="false"
     inkscape:window-width="960"
     inkscape:window-height="1031"
     inkscape:window-x="958"
     inkscape:window-y="0"
     inkscape:window-maximized="0" />
  <metadata
     id="metadata3946">
    <rdf:RDF>
      <cc:Work
         rdf:about="">
        <dc:format>image/svg+xml</dc:format>
        <dc:type
           rdf:resource="http://purl.org/dc/dcmitype/StillImage" />
        <dc:title />
      </cc:Work>
    </rdf:RDF>
  </metadata>
  <g
     inkscape:label="Layer 1"
     inkscape:groupmode="layer"
     id="layer1">
    <polyline
       points="0,-66 0,0 0,0 4,0 8,0 12,0 16,2 20,2 24,3 28,4 32,8 36,8 40,10 44,13 48,15 52,15 56,18 60,18 64,20 68,21 72,27 76,26 80,20 84,16 88,17 92,21 96,27 100,28 104,28 108,28 112,27 116,28 120,29 124,30 128,31 132,34 136,37 140,37 144,39 148,39 152,41 156,46 160,48 164,57 168,58 172,67 176,66 180,60 184,56 188,49 192,46 196,42 200,40 204,50 208,49 212,43 216,41 220,38 224,35 228,32 232,32 236,33 240,31 244,31 248,25 252,14 256,18 260,21 264,23 268,26 272,26 276,27 280,27 284,17 288,13 292,19 296,21 300,20 304,19 308,24 312,25 316,26 316,-66 0,-66"
       style="fill:#ffffff;stroke:#ff0000;stroke-width:4"
       id="polyline7"
       transform="translate(379.20346,722.17768)" />
    <polyline
       points="0,1334 0,1409 0,1409 4,1409 8,1410 12,1414 16,1418 20,1418 24,1421 28,1422 32,1422 36,1422 40,1426 44,1429 48,1433 52,1435 56,1438 60,1439 64,1439 68,1441 72,1444 76,1444 80,1453 84,1456 88,1458 92,1457 96,1460 100,1459 104,1452 108,1451 112,1462 116,1466 120,1471 124,1468 128,1462 132,1460 136,1465 140,1467 144,1467 148,1464 152,1459 156,1466 160,1472 164,1475 168,1474 172,1454 176,1446 180,1442 184,1450 188,1466 192,1475 196,1492 200,1496 204,1490 208,1487 212,1484 216,1487 220,1491 224,1492 228,1487 232,1486 236,1486 240,1481 244,1470 248,1467 252,1477 256,1479 260,1481 264,1483 268,1477 272,1474 276,1479 280,1474 284,1464 288,1460 292,1454 296,1453 300,1451 304,1449 308,1449 312,1448 316,1447 316,1334 0,1334"
       style="fill:#ffffff;stroke:#ff0000;stroke-width:4"
       id="polyline21"
       transform="translate(388.19368,-505.95162)" />
    <polyline
       points="0,3734 0,3869 0,3869 4,3872 8,3879 12,3881 16,3876 20,3877 24,3882 28,3883 32,3888 36,3892 40,3897 44,3899 48,3896 52,3892 56,3894 60,3896 64,3905 68,3914 72,3929 76,3933 80,3942 84,3947 88,3955 92,3958 96,3968 100,3974 104,3983 108,3986 112,3996 116,3998 120,3992 124,3988 128,3983 132,3982 136,3981 140,3980 144,3973 148,3956 152,3948 156,3940 160,3935 164,3927 168,3924 172,3923 176,3922 180,3923 184,3925 188,3921 192,3919 196,3924 200,3927 204,3933 208,3933 212,3944 216,3954 220,3966 224,3966 228,3970 232,3970 236,3970 240,3965 244,3956 248,3951 252,3942 256,3937 260,3928 264,3923 268,3912 272,3909 276,3914 280,3922 284,3933 288,3934 292,3933 296,3933 300,3933 304,3932 308,3929 312,3927 316,3914 316,3734 0,3734"
       style="fill:#ffffff;stroke:#ff0000;stroke-width:4"
       id="polyline45"
       transform="translate(29.700383,-3528.4005)" />
    <polyline
       points="0,3934 0,4054 0,4054 4,4058 8,4061 12,4063 16,4064 20,4064 24,4073 28,4076 32,4082 36,4085 40,4083 44,4084 48,4096 52,4102 56,4109 60,4111 64,4107 68,4111 72,4119 76,4122 80,4133 84,4140 88,4157 92,4163 96,4177 100,4183 104,4188 108,4188 112,4182 116,4178 120,4175 124,4177 128,4177 132,4180 136,4185 140,4185 144,4185 148,4182 152,4181 156,4175 160,4175 164,4171 168,4168 172,4163 176,4160 180,4163 184,4167 188,4158 192,4151 196,4152 200,4159 204,4166 208,4164 212,4159 216,4155 220,4150 224,4150 228,4146 232,4143 236,4147 240,4147 244,4146 248,4145 252,4138 256,4135 260,4128 264,4126 268,4114 272,4108 276,4092 280,4086 284,4096 288,4094 292,4099 296,4103 300,4107 304,4110 308,4116 312,4120 316,4121 316,3934 0,3934"
       style="fill:#ffffff;stroke:#ff0000;stroke-width:4"
       id="polyline47"
       transform="translate(21.520623,-3427.3454)" />
    <polyline
       points="0,4134 0,4277 0,4277 4,4283 8,4296 12,4299 16,4303 20,4303 24,4304 28,4305 32,4311 36,4313 40,4317 44,4319 48,4322 52,4323 56,4328 60,4331 64,4337 68,4339 72,4346 76,4349 80,4351 84,4349 88,4352 92,4354 96,4357 100,4356 104,4347 108,4340 112,4326 116,4321 120,4332 124,4335 128,4332 132,4335 136,4346 140,4350 144,4355 148,4344 152,4340 156,4349 160,4355 164,4368 168,4371 172,4375 176,4375 180,4371 184,4368 188,4356 192,4352 196,4355 200,4360 204,4362 208,4360 212,4354 216,4350 220,4335 224,4327 228,4314 232,4308 236,4313 240,4316 244,4327 248,4331 252,4329 256,4330 260,4331 264,4330 268,4323 272,4319 276,4304 280,4301 284,4297 288,4294 292,4291 296,4286 300,4273 304,4273 308,4276 312,4280 316,4287 316,4134 0,4134"
       style="fill:#ffffff;stroke:#ff0000;stroke-width:4"
       id="polyline49"
       transform="translate(21.520623,-3338.4519)" />
    <polyline
       points="0,4334 0,4462 0,4462 4,4463 8,4468 12,4468 16,4474 20,4479 24,4482 28,4483 32,4483 36,4482 40,4482 44,4482 48,4491 52,4497 56,4507 60,4511 64,4515 68,4513 72,4508 76,4506 80,4503 84,4504 88,4513 92,4519 96,4527 100,4526 104,4514 108,4507 112,4500 116,4502 120,4506 124,4511 128,4516 132,4523 136,4530 140,4533 144,4533 148,4524 152,4515 156,4521 160,4528 164,4529 168,4528 172,4528 176,4528 180,4538 184,4543 188,4548 192,4547 196,4540 200,4536 204,4526 208,4532 212,4540 216,4539 220,4532 224,4526 228,4518 232,4513 236,4508 240,4501 244,4494 248,4501 252,4512 256,4510 260,4502 264,4504 268,4507 272,4506 276,4514 280,4514 284,4506 288,4499 292,4491 296,4487 300,4485 304,4483 308,4474 312,4469 316,4463 316,4334 0,4334"
       style="fill:#ffffff;stroke:#ff0000;stroke-width:4"
       id="polyline51"
       transform="translate(377.09432,-4122.3303)" />
    <polyline
       points="0,4534 0,4654 0,4654 4,4653 8,4655 12,4659 16,4664 20,4665 24,4670 28,4674 32,4682 36,4687 40,4690 44,4692 48,4693 52,4689 56,4681 60,4684 64,4690 68,4689 72,4677 76,4680 80,4685 84,4690 88,4698 92,4699 96,4697 100,4695 104,4688 108,4685 112,4686 116,4690 120,4702 124,4707 128,4710 132,4709 136,4711 140,4708 144,4703 148,4700 152,4703 156,4714 160,4713 164,4703 168,4705 172,4716 176,4720 180,4725 184,4728 188,4733 192,4732 196,4731 200,4730 204,4724 208,4719 212,4714 216,4720 220,4721 224,4720 228,4716 232,4716 236,4715 240,4712 244,4706 248,4702 252,4687 256,4681 260,4679 264,4682 268,4690 272,4692 276,4680 280,4676 284,4686 288,4687 292,4680 296,4675 300,4679 304,4675 308,4663 312,4667 316,4671 316,4534 0,4534"
       style="fill:#ffffff;stroke:#ff0000;stroke-width:4"
       id="polyline53"
       transform="translate(371.38003,-4092.2172)" />
    <polyline
       points="46,-67 41,-61 41,-34 39,-34 39,-61 34,-67"
       style="fill:#ffffff;stroke:#ff0000;stroke-width:4"
       id="polyline55"
       transform="translate(379.20346,722.17768)" />
    <polyline
       points="86,-67 81,-61 81,-34 79,-34 79,-61 74,-67"
       style="fill:#ffffff;stroke:#ff0000;stroke-width:4"
       id="polyline57"
       transform="translate(379.20346,722.17768)" />
    <polyline
       points="126,-67 121,-61 121,-34 119,-34 119,-61 114,-67"
       style="fill:#ffffff;stroke:#ff0000;stroke-width:4"
       id="polyline59"
       transform="translate(379.20346,722.17768)" />
    <polyline
       points="166,-67 161,-61 161,-34 159,-34 159,-61 154,-67"
       style="fill:#ffffff;stroke:#ff0000;stroke-width:4"
       id="polyline61"
       transform="translate(379.20346,722.17768)" />
    <polyline
       points="206,-67 201,-61 201,-34 199,-34 199,-61 194,-67"
       style="fill:#ffffff;stroke:#ff0000;stroke-width:4"
       id="polyline63"
       transform="translate(379.20346,722.17768)" />
    <polyline
       points="246,-67 241,-61 241,-34 239,-34 239,-61 234,-67"
       style="fill:#ffffff;stroke:#ff0000;stroke-width:4"
       id="polyline65"
       transform="translate(379.20346,722.17768)" />
    <polyline
       points="286,-67 281,-61 281,-34 279,-34 279,-61 274,-67"
       style="fill:#ffffff;stroke:#ff0000;stroke-width:4"
       id="polyline67"
       transform="translate(379.20346,722.17768)" />
    <polyline
       points="46,1333 41,1339 41,1366 39,1366 39,1339 34,1333"
       style="fill:#ffffff;stroke:#ff0000;stroke-width:4"
       id="polyline153"
       transform="translate(388.19368,-505.95162)" />
    <polyline
       points="86,1333 81,1339 81,1366 79,1366 79,1339 74,1333"
       style="fill:#ffffff;stroke:#ff0000;stroke-width:4"
       id="polyline155"
       transform="translate(388.19368,-505.95162)" />
    <polyline
       points="126,1333 121,1339 121,1366 119,1366 119,1339 114,1333"
       style="fill:#ffffff;stroke:#ff0000;stroke-width:4"
       id="polyline157"
       transform="translate(388.19368,-505.95162)" />
    <polyline
       points="166,1333 161,1339 161,1366 159,1366 159,1339 154,1333"
       style="fill:#ffffff;stroke:#ff0000;stroke-width:4"
       id="polyline159"
       transform="translate(388.19368,-505.95162)" />
    <polyline
       points="206,1333 201,1339 201,1366 199,1366 199,1339 194,1333"
       style="fill:#ffffff;stroke:#ff0000;stroke-width:4"
       id="polyline161"
       transform="translate(388.19368,-505.95162)" />
    <polyline
       points="246,1333 241,1339 241,1366 239,1366 239,1339 234,1333"
       style="fill:#ffffff;stroke:#ff0000;stroke-width:4"
       id="polyline163"
       transform="translate(388.19368,-505.95162)" />
    <polyline
       points="286,1333 281,1339 281,1366 279,1366 279,1339 274,1333"
       style="fill:#ffffff;stroke:#ff0000;stroke-width:4"
       id="polyline165"
       transform="translate(388.19368,-505.95162)" />
    <polyline
       points="46,3733 41,3739 41,3766 39,3766 39,3739 34,3733"
       style="fill:#ffffff;stroke:#ff0000;stroke-width:4"
       id="polyline321"
       transform="translate(29.700383,-3528.4005)" />
    <polyline
       points="86,3733 81,3739 81,3766 79,3766 79,3739 74,3733"
       style="fill:#ffffff;stroke:#ff0000;stroke-width:4"
       id="polyline323"
       transform="translate(29.700383,-3528.4005)" />
    <polyline
       points="126,3733 121,3739 121,3766 119,3766 119,3739 114,3733"
       style="fill:#ffffff;stroke:#ff0000;stroke-width:4"
       id="polyline325"
       transform="translate(29.700383,-3528.4005)" />
    <polyline
       points="166,3733 161,3739 161,3766 159,3766 159,3739 154,3733"
       style="fill:#ffffff;stroke:#ff0000;stroke-width:4"
       id="polyline327"
       transform="translate(29.700383,-3528.4005)" />
    <polyline
       points="206,3733 201,3739 201,3766 199,3766 199,3739 194,3733"
       style="fill:#ffffff;stroke:#ff0000;stroke-width:4"
       id="polyline329"
       transform="translate(29.700383,-3528.4005)" />
    <polyline
       points="246,3733 241,3739 241,3766 239,3766 239,3739 234,3733"
       style="fill:#ffffff;stroke:#ff0000;stroke-width:4"
       id="polyline331"
       transform="translate(29.700383,-3528.4005)" />
    <polyline
       points="286,3733 281,3739 281,3766 279,3766 279,3739 274,3733"
       style="fill:#ffffff;stroke:#ff0000;stroke-width:4"
       id="polyline333"
       transform="translate(29.700383,-3528.4005)" />
    <polyline
       points="46,3933 41,3939 41,3966 39,3966 39,3939 34,3933"
       style="fill:#ffffff;stroke:#ff0000;stroke-width:4"
       id="polyline335"
       transform="translate(21.520623,-3427.3454)" />
    <polyline
       points="86,3933 81,3939 81,3966 79,3966 79,3939 74,3933"
       style="fill:#ffffff;stroke:#ff0000;stroke-width:4"
       id="polyline337"
       transform="translate(21.520623,-3427.3454)" />
    <polyline
       points="126,3933 121,3939 121,3966 119,3966 119,3939 114,3933"
       style="fill:#ffffff;stroke:#ff0000;stroke-width:4"
       id="polyline339"
       transform="translate(21.520623,-3427.3454)" />
    <polyline
       points="166,3933 161,3939 161,3966 159,3966 159,3939 154,3933"
       style="fill:#ffffff;stroke:#ff0000;stroke-width:4"
       id="polyline341"
       transform="translate(21.520623,-3427.3454)" />
    <polyline
       points="206,3933 201,3939 201,3966 199,3966 199,3939 194,3933"
       style="fill:#ffffff;stroke:#ff0000;stroke-width:4"
       id="polyline343"
       transform="translate(21.520623,-3427.3454)" />
    <polyline
       points="246,3933 241,3939 241,3966 239,3966 239,3939 234,3933"
       style="fill:#ffffff;stroke:#ff0000;stroke-width:4"
       id="polyline345"
       transform="translate(21.520623,-3427.3454)" />
    <polyline
       points="286,3933 281,3939 281,3966 279,3966 279,3939 274,3933"
       style="fill:#ffffff;stroke:#ff0000;stroke-width:4"
       id="polyline347"
       transform="translate(21.520623,-3427.3454)" />
    <polyline
       points="46,4133 41,4139 41,4166 39,4166 39,4139 34,4133"
       style="fill:#ffffff;stroke:#ff0000;stroke-width:4"
       id="polyline349"
       transform="translate(21.520623,-3338.4519)" />
    <polyline
       points="86,4133 81,4139 81,4166 79,4166 79,4139 74,4133"
       style="fill:#ffffff;stroke:#ff0000;stroke-width:4"
       id="polyline351"
       transform="translate(21.520623,-3338.4519)" />
    <polyline
       points="126,4133 121,4139 121,4166 119,4166 119,4139 114,4133"
       style="fill:#ffffff;stroke:#ff0000;stroke-width:4"
       id="polyline353"
       transform="translate(21.520623,-3338.4519)" />
    <polyline
       points="166,4133 161,4139 161,4166 159,4166 159,4139 154,4133"
       style="fill:#ffffff;stroke:#ff0000;stroke-width:4"
       id="polyline355"
       transform="translate(21.520623,-3338.4519)" />
    <polyline
       points="206,4133 201,4139 201,4166 199,4166 199,4139 194,4133"
       style="fill:#ffffff;stroke:#ff0000;stroke-width:4"
       id="polyline357"
       transform="translate(21.520623,-3338.4519)" />
    <polyline
       points="246,4133 241,4139 241,4166 239,4166 239,4139 234,4133"
       style="fill:#ffffff;stroke:#ff0000;stroke-width:4"
       id="polyline359"
       transform="translate(21.520623,-3338.4519)" />
    <polyline
       points="286,4133 281,4139 281,4166 279,4166 279,4139 274,4133"
       style="fill:#ffffff;stroke:#ff0000;stroke-width:4"
       id="polyline361"
       transform="translate(21.520623,-3338.4519)" />
    <polyline
       points="46,4333 41,4339 41,4366 39,4366 39,4339 34,4333"
       style="fill:#ffffff;stroke:#ff0000;stroke-width:4"
       id="polyline363"
       transform="translate(377.09432,-4122.3303)" />
    <polyline
       points="86,4333 81,4339 81,4366 79,4366 79,4339 74,4333"
       style="fill:#ffffff;stroke:#ff0000;stroke-width:4"
       id="polyline365"
       transform="translate(377.09432,-4122.3303)" />
    <polyline
       points="126,4333 121,4339 121,4366 119,4366 119,4339 114,4333"
       style="fill:#ffffff;stroke:#ff0000;stroke-width:4"
       id="polyline367"
       transform="translate(377.09432,-4122.3303)" />
    <polyline
       points="166,4333 161,4339 161,4366 159,4366 159,4339 154,4333"
       style="fill:#ffffff;stroke:#ff0000;stroke-width:4"
       id="polyline369"
       transform="translate(377.09432,-4122.3303)" />
    <polyline
       points="206,4333 201,4339 201,4366 199,4366 199,4339 194,4333"
       style="fill:#ffffff;stroke:#ff0000;stroke-width:4"
       id="polyline371"
       transform="translate(377.09432,-4122.3303)" />
    <polyline
       points="246,4333 241,4339 241,4366 239,4366 239,4339 234,4333"
       style="fill:#ffffff;stroke:#ff0000;stroke-width:4"
       id="polyline373"
       transform="translate(377.09432,-4122.3303)" />
    <polyline
       points="286,4333 281,4339 281,4366 279,4366 279,4339 274,4333"
       style="fill:#ffffff;stroke:#ff0000;stroke-width:4"
       id="polyline375"
       transform="translate(377.09432,-4122.3303)" />
    <polyline
       points="46,4533 41,4539 41,4566 39,4566 39,4539 34,4533"
       style="fill:#ffffff;stroke:#ff0000;stroke-width:4"
       id="polyline377"
       transform="translate(371.38003,-4092.2172)" />
    <polyline
       points="86,4533 81,4539 81,4566 79,4566 79,4539 74,4533"
       style="fill:#ffffff;stroke:#ff0000;stroke-width:4"
       id="polyline379"
       transform="translate(371.38003,-4092.2172)" />
    <polyline
       points="126,4533 121,4539 121,4566 119,4566 119,4539 114,4533"
       style="fill:#ffffff;stroke:#ff0000;stroke-width:4"
       id="polyline381"
       transform="translate(371.38003,-4092.2172)" />
    <polyline
       points="166,4533 161,4539 161,4566 159,4566 159,4539 154,4533"
       style="fill:#ffffff;stroke:#ff0000;stroke-width:4"
       id="polyline383"
       transform="translate(371.38003,-4092.2172)" />
    <polyline
       points="206,4533 201,4539 201,4566 199,4566 199,4539 194,4533"
       style="fill:#ffffff;stroke:#ff0000;stroke-width:4"
       id="polyline385"
       transform="translate(371.38003,-4092.2172)" />
    <polyline
       points="246,4533 241,4539 241,4566 239,4566 239,4539 234,4533"
       style="fill:#ffffff;stroke:#ff0000;stroke-width:4"
       id="polyline387"
       transform="translate(371.38003,-4092.2172)" />
    <polyline
       points="286,4533 281,4539 281,4566 279,4566 279,4539 274,4533"
       style="fill:#ffffff;stroke:#ff0000;stroke-width:4"
       id="polyline389"
       transform="translate(371.38003,-4092.2172)" />
  </g>
</svg>
